/* XPM */
static char *_6e24143b2804e48902a0d905cbcaa55[] = {
/* columns rows colors chars-per-pixel */
"64 64 155 2 ",
"   c None",
".  c #2F1307",
"X  c #2F1407",
"o  c #2F1308",
"O  c #2F1408",
"+  c #301407",
"@  c #3A1607",
"#  c #301308",
"$  c #301408",
"%  c #311409",
"&  c #32150A",
"*  c #3A1708",
"=  c #37180B",
"-  c #3B1808",
";  c #3C1808",
":  c #3C1909",
">  c #3D1A09",
",  c #3D1A0A",
"<  c #3E1B0B",
"1  c #391A0C",
"2  c #3E1B0C",
"3  c #3A2417",
"4  c #3A2418",
"5  c #3A2619",
"6  c #3A261A",
"7  c #3B271B",
"8  c #3C2619",
"9  c #3C271A",
"0  c #3C271B",
"q  c #3C271F",
"w  c #3B281B",
"e  c #3D281A",
"r  c #3C281B",
"t  c #3F291C",
"y  c #431E0E",
"u  c #40281B",
"i  c #412A1B",
"p  c #40291C",
"a  c #412A1C",
"s  c #442A1C",
"d  c #472B1E",
"f  c #452C1D",
"g  c #492C1D",
"h  c #492D1E",
"j  c #4A2E1E",
"k  c #5A2A15",
"l  c #63311B",
"z  c #683119",
"x  c #683219",
"c  c #6B341B",
"v  c #6C341A",
"b  c #6C341B",
"n  c #6B351D",
"m  c #6A361E",
"M  c #6C361D",
"N  c #6E371E",
"B  c #71361C",
"V  c #71361D",
"C  c #73381D",
"Z  c #76391E",
"A  c #773A1E",
"S  c #793A1E",
"D  c #793A1F",
"F  c #7A3C1F",
"G  c #4D3125",
"H  c #4C3126",
"J  c #563426",
"K  c #52372B",
"L  c #56372A",
"P  c #5E3829",
"I  c #5A3A2D",
"U  c #7A3C20",
"Y  c #7A3F23",
"T  c #7E3E22",
"R  c #7E3E23",
"E  c #784733",
"W  c #794A36",
"Q  c #803F23",
"!  c #824024",
"~  c #844124",
"^  c #854327",
"/  c #884225",
"(  c #884326",
")  c #8A4426",
"_  c #8A4427",
"`  c #8B492A",
"'  c #8F4928",
"]  c #8F4929",
"[  c #914929",
"{  c #934928",
"}  c #934A28",
"|  c #924A29",
" . c #914B2B",
".. c #944A28",
"X. c #944A29",
"o. c #964B2A",
"O. c #914C2B",
"+. c #984D2B",
"@. c #994E2B",
"#. c #9B4E2C",
"$. c #9C4E2C",
"%. c #9A502E",
"&. c #9E502D",
"*. c #83513C",
"=. c #8C563E",
"-. c #9D5330",
";. c #9E5331",
":. c #93563A",
">. c #92563B",
",. c #94593F",
"<. c #A0512C",
"1. c #A1512D",
"2. c #A1522D",
"3. c #A1522E",
"4. c #A3532F",
"5. c #A5532F",
"6. c #A5542F",
"7. c #A55632",
"8. c #A45733",
"9. c #A85631",
"0. c #A75834",
"q. c #AC5832",
"w. c #AD5933",
"e. c #AF5A33",
"r. c #AC5B35",
"t. c #B35C35",
"y. c #B35D36",
"u. c #B25E37",
"i. c #B45D35",
"p. c #B55D36",
"a. c #B25E38",
"s. c #BD6339",
"d. c #BC623A",
"f. c #C1663D",
"g. c #8F5B43",
"h. c #915A41",
"j. c #9B5F44",
"k. c #B16A4A",
"l. c #B16B4B",
"z. c #B76B48",
"x. c #B36D4C",
"c. c #B16E4E",
"v. c #B86B48",
"b. c #B86D4B",
"n. c #B46F50",
"m. c #BF7553",
"M. c #887F79",
"N. c #887F7A",
"B. c #C37652",
"V. c #C47550",
"C. c #C57651",
"Z. c #8A807A",
"A. c #8A807B",
"S. c #A0958D",
"D. c #A39890",
/* pixels */
"  C.f.f.f.f.f.f.f.f.f.f.f.f.f.f.f.f.f.f.f.f.f.f.f.f.f.f.f.b.        V.f.f.f.f.f.f.f.f.f.f.f.f.f.f.f.f.f.f.f.f.f.f.f.f.f.f.f.b.  ",
"x.e.i.i.i.i.i.i.i.i.i.i.i.i.i.i.i.i.i.i.i.i.i.i.i.i.i.i.i.5.j.S.D.x.t.i.t.t.i.i.i.i.i.i.i.i.i.i.i.i.i.i.i.i.i.i.i.i.i.i.i.i.1.:.",
"-.1.9.9.9.9.9.9.9.9.9.9.9.9.9.9.9.9.9.9.9.9.9.9.9.9.9.9.9.+.! a a | 1.9.9.9.9.9.9.9.9.9.9.9.9.9.9.9.9.9.9.9.9.9.9.9.9.9.9.9...S ",
"-.1.9.9.9.9.9.9.9.9.9.9.9.9.9.9.9.9.9.9.9.9.9.9.9.9.9.9.9.+.! r t | 1.7.9.9.9.9.9.9.9.9.9.9.9.9.9.9.9.9.9.9.9.9.9.9.9.9.9.9.| S ",
"-.1.9.9.9.9.9.9.9.9.9.9.9.9.9.9.9.9.9.9.9.9.9.9.9.9.9.9.9.+.! u r } 2.9.9.9.9.9.9.9.9.9.9.9.9.9.9.9.9.9.9.9.9.9.9.9.9.9.9.9...S ",
"-.1.9.9.9.9.9.9.9.9.9.9.9.9.9.9.9.9.9.9.9.9.9.9.9.9.9.9.9.+.! u u } 2.9.9.9.9.9.9.9.9.9.9.9.9.9.9.9.9.9.9.9.9.9.9.9.9.9.9.9.| S ",
"-.1.9.9.9.9.9.9.9.9.9.9.9.9.9.9.9.9.9.9.9.9.9.9.9.9.9.9.9.+.! u a | 2.9.9.9.9.9.9.9.9.9.9.9.9.9.9.9.9.9.9.9.9.9.9.9.9.9.9.9...S ",
"-.1.9.9.9.9.9.9.9.9.9.9.9.9.9.9.9.9.9.9.9.9.9.9.9.9.9.9.9.+.! u u | 1.9.9.9.9.9.9.9.9.9.9.9.9.9.9.9.9.9.9.9.9.9.9.9.9.9.9.9.| S ",
";.1.9.9.9.9.9.9.9.9.9.9.9.9.9.9.9.9.9.9.9.9.9.9.9.9.9.9.9.+.~ u u | 1.9.9.9.9.9.9.9.9.9.9.9.9.9.9.9.9.9.9.9.9.9.9.9.9.9.9.9...S ",
";.1.9.9.9.9.9.9.9.9.9.9.9.9.9.9.9.9.9.9.9.9.9.9.9.9.9.9.9.+.Q u a | 1.9.9.9.9.9.9.9.9.9.9.9.9.9.9.9.9.9.9.9.9.9.9.9.9.9.9.9.| S ",
";.1.9.9.9.9.9.9.9.9.9.9.9.9.9.9.9.9.9.9.9.9.9.9.9.9.9.9.9.+.~ 0 t } 2.9.9.9.9.9.9.9.9.9.9.9.9.9.9.9.9.9.9.9.9.9.9.9.9.9.9.9.{ S ",
";.1.9.9.9.9.9.9.9.9.9.9.9.9.9.9.9.9.9.9.9.9.9.9.9.9.9.9.9.+.~ u t } 2.9.9.9.9.9.9.9.9.9.9.9.9.9.9.9.9.9.9.9.9.9.9.9.9.9.9.9...S ",
"%.2.9.9.9.9.9.9.9.9.9.9.9.9.9.9.9.9.9.9.9.9.9.9.9.9.9.9.9.+.~ u u | 2.9.9.9.9.9.9.9.9.9.9.9.9.9.9.9.9.9.9.9.9.9.9.9.9.9.9.9.| S ",
";.2.9.9.9.9.9.9.9.9.9.9.9.9.9.9.9.9.9.9.9.9.9.9.9.9.9.9.9.+.~ 0 u | 2.9.9.9.9.9.9.9.9.9.9.9.9.9.9.9.9.9.9.9.9.9.9.9.9.9.9.9.{ U ",
";.2.9.9.9.9.9.9.9.9.9.9.9.9.9.9.9.9.9.9.9.9.9.9.9.9.9.9.9.+.~ u u | 1.9.9.9.9.9.9.9.9.9.9.9.9.9.9.9.9.9.9.9.9.9.9.9.9.9.9.9.{ S ",
"%.2.9.9.9.9.9.9.9.9.9.9.9.9.9.9.9.9.9.9.9.9.9.9.9.9.9.9.9.+.~ u u | 1.9.9.9.9.9.9.9.9.9.9.9.9.9.9.9.9.9.9.9.9.9.9.9.9.9.9.7.{ U ",
";.2.9.9.9.9.9.9.7.9.9.9.9.9.9.9.9.9.9.9.9.9.9.9.9.9.9.9.9.+.~ u a | 1.9.9.9.9.9.9.9.9.9.9.9.9.9.9.9.9.9.9.9.9.9.9.9.9.9.9.9...U ",
";.2.9.7.9.9.9.9.7.7.9.9.9.9.9.9.9.9.9.9.9.9.9.9.9.9.9.9.9.+.~ u r | 1.9.9.9.9.9.9.9.9.9.9.9.9.9.9.9.9.9.9.7.9.9.9.9.9.9.9.9.{ U ",
"=.A F S U S S S U U U U S S U S U U S U S U U U F F F F F Z n 0 r N Z F F F S F U U U U F F U U U U U U U U U U U U U U U U B E ",
"  L * @ * @ - @ @ @ @ - @ * * * * @ @ @ @ > @ @ - @ > - > y 0 0 r 0 2 > - > > > > > > > > > > > > @ y @ 2 > > > > > 2 > 2 > J   ",
"    7 7 7 7 7 7 6 6 w w 7 7 w 7 0 0 7 7 t 7 7 7 w w w 7 w w w w r r 0 0 r 0 0 0 0 0 0 0 0 0 0 0 0 0 0 0 0 0 0 0 w w w 6 0 7 M.  ",
"    7 w 0 r r r w 6 w w r w w r t w 7 w 0 t r 0 w w t 7 w w w 6 r r r r r r r r r r r r r r r r 0 0 w 0 r r r r w w w 6 r 7 A.  ",
"  m.a.a.a.t.a.a.r.d.d.t.t.;.g r 7 g 8.t.a.a.a.a.a.a.r.d.t.a.t.d.a.a.t.a.a.a.a.a.a.a.a.a.a.%.d 0 r j 0.a.a.a.a.a.a.a.t.d.a.t.k.  ",
"n.e.t.t.t.t.t.t.t.t.r.t.t.6.^ r w ` e.t.t.t.t.i.t.t.t.t.t.t.t.t.t.t.t.i.t.t.t.i.t.t.t.t.t.&.Y 0 r } r.i.t.t.t.t.t.t.t.t.t.t.1.,.",
"-.1.7.9.9.9.9.9.9.9.9.9.9.$.) u w ] &.7.9.9.9.9.9.9.9.9.9.9.9.9.9.9.9.9.9.9.9.9.9.9.9.9.9...Q p u | 1.9.9.9.9.9.7.9.9.9.9.9...S ",
"-.1.9.9.9.9.9.9.9.9.9.9.9.$.) u t ] <.9.9.9.9.9.9.9.9.9.9.9.9.9.9.9.9.9.9.9.9.9.9.9.9.9.7.o.U p u | 1.9.9.9.9.9.9.9.9.9.9.9.| U ",
"%.1.9.9.9.9.9.9.9.9.9.9.9.$.) i u ' <.9.9.9.9.9.9.9.9.9.9.9.9.9.9.9.9.9.9.9.9.9.9.9.9.9.9...R 0 u | 1.9.9.9.9.9.9.9.9.9.9.9.| S ",
";.1.9.9.9.9.9.9.9.9.9.9.9.&.) u r ' <.9.9.9.9.9.9.9.9.9.9.9.9.9.9.9.9.9.9.9.9.9.9.9.9.9.9...R a u | 1.9.9.9.9.9.9.9.9.9.9.9...S ",
";.2.9.9.9.9.9.9.9.9.9.9.9.&.) u u ' <.9.9.9.9.9.9.9.9.9.9.9.9.9.9.9.9.9.9.9.9.9.9.9.9.9.9...U r u | 1.9.9.9.9.9.9.9.9.9.9.9.{ S ",
"%.1.9.9.9.9.9.9.9.9.9.9.9.%.) u r ' <.9.9.9.9.9.9.9.9.9.9.9.9.9.9.9.9.9.9.9.9.9.9.9.9.9.9...Q u u | 1.9.9.9.9.9.9.9.9.9.9.9.{ U ",
"8.2.9.9.9.9.9.9.9.9.9.9.9.$.) u u ] <.9.9.9.9.9.9.9.9.9.9.9.9.9.9.9.9.9.9.9.9.9.9.9.9.9.9...Q t u | 1.9.9.9.9.9.9.9.9.9.9.9.{ S ",
"%.2.9.9.9.9.9.9.9.9.9.9.9.$.) u u ] <.9.9.9.9.9.9.9.9.9.9.9.9.9.9.9.9.9.9.9.9.9.9.9.9.9.9.o.U u u | 1.9.9.9.9.9.9.9.9.9.9.7.{ U ",
"-.1.9.9.9.9.9.9.9.9.9.9.9.$.) u r ] 1.9.9.9.9.9.9.9.9.9.9.9.9.9.9.9.9.9.9.9.9.9.9.9.9.9.9...R 0 p | 1.7.9.9.9.9.9.9.9.9.9.9.| S ",
"-.1.9.9.9.9.9.9.9.9.9.9.9.$.) u r ' <.9.9.9.9.9.9.9.9.9.9.9.9.9.9.9.9.9.9.9.9.9.9.9.9.9.9...R p p { 1.9.9.9.9.9.9.9.9.9.9.9.| U ",
"-.1.9.9.9.9.9.9.9.9.9.9.9.$._ p u ' 1.9.9.9.9.9.9.9.9.9.9.9.9.9.9.9.9.9.9.9.9.9.9.9.9.9.9.o.R 0 u | 1.9.9.9.9.9.9.9.9.9.9.9.| S ",
"-.1.9.9.9.9.9.9.9.9.9.9.9.$.) u r ' 1.9.9.9.9.9.9.9.9.9.9.9.9.9.9.9.9.9.9.9.9.9.9.9.9.9.9...R p u | 1.9.9.9.9.9.9.9.9.9.9.9...S ",
"-.1.9.9.9.9.9.9.9.9.9.9.9.$.) u u ' <.9.9.9.9.9.9.9.9.9.9.9.9.9.9.9.9.9.9.9.9.9.9.9.9.9.0...U u u | 1.9.9.9.9.9.9.9.9.9.9.9.| S ",
"-.1.9.9.9.9.9.9.9.9.9.9.9.$._ p r ' <.9.9.9.9.9.9.9.9.9.9.9.9.9.9.9.9.9.9.9.9.9.9.9.9.9.9...Q u u | 1.9.9.9.9.9.9.9.9.9.9.9...S ",
"-.1.9.9.9.9.9.9.9.9.9.9.9.$.) u 0 ] <.9.9.9.9.9.9.9.9.9.9.9.9.9.9.9.9.9.9.9.9.9.9.9.9.9.9...U t u | 1.9.9.9.9.9.9.9.9.9.9.9.{ U ",
"-.1.9.9.9.9.9.9.9.9.9.9.9.1.) u r | <.9.9.9.9.9.9.9.9.9.9.9.9.7.9.9.9.9.9.9.9.9.9.9.9.9.9.+.Q u u | 1.9.9.9.9.9.9.9.9.9.9.9.{ S ",
"g.B B B B B B B B B B B B B n 0 r N B B B B U n B B B B B B B B B B B B B B B B B B B B B n l r 0 N B B B B B B B B B B B B z W ",
"  K . X O o $ O $ $ O o $ 1 7 t 0 7 - . O O o o % + o o o % O O o $ o O O $ o o O O O o O - 0 0 r 0 = O $ O o O o o o o o o H   ",
"    7 r 7 t t 7 r r r r t w t w 0 r r r 7 t 7 7 r r 0 0 7 7 w 7 7 t t w r r r r w w t w r r r r r r 7 w t 7 0 r 0 t 7 r 7 7 N.  ",
"    7 0 w 0 w w r r r r 7 w 7 w r r r r w 7 7 7 0 t 0 p 0 t w t w w 0 w r r r r t 7 t w r r r r r r 7 t w w r 0 0 0 w r 7 7 A.  ",
"  B.s.d.d.d.d.d.d.d.d.d.d.d.d.d.s.s.d.s.d.s.d.d.p.f.f.p.p.9.s u w d r.d.d.d.d.d.d.d.d.d.d.d.d.d.d.d.d.d.d.d.d.d.d.d.d.d.d.d.z.  ",
"k.e.t.t.t.t.t.t.t.t.t.t.t.t.t.t.t.t.t.t.t.t.t.t.t.t.t.t.p.9.Q p w | e.t.t.t.t.t.t.t.t.t.t.i.t.t.t.t.t.i.t.t.t.t.t.t.t.i.i.t.&.>.",
"-.1.9.9.9.9.9.9.9.9.9.9.9.9.9.9.9.9.9.9.9.9.9.9.9.9.9.9.q.$.Q d t | 1.9.7.9.9.9.7.9.9.9.9.9.9.9.9.9.9.9.9.9.9.9.9.9.9.9.9.9.| S ",
";.1.9.9.9.9.9.9.9.9.9.9.9.9.9.9.9.9.9.9.9.9.9.9.9.9.9.9.0.$.Q p t | 1.9.9.9.9.9.9.9.9.9.9.9.9.9.9.9.9.9.9.9.9.9.9.9.9.9.9.9...S ",
";.2.9.9.9.9.9.9.9.9.9.9.9.9.9.9.9.9.9.9.9.9.9.9.9.9.9.9.9.$.Q s a | 1.9.9.9.9.9.9.9.9.9.9.9.9.9.9.9.9.9.9.9.9.9.9.9.9.9.9.9.' S ",
"%.2.9.9.9.9.9.9.9.9.9.9.9.9.9.9.9.9.9.9.9.9.9.9.9.9.9.9.9.$._ s a | 1.9.9.9.9.9.9.9.9.9.9.9.9.9.9.9.9.9.9.9.9.9.9.9.9.9.9.9...S ",
";.1.9.9.9.9.9.9.9.9.9.9.9.9.9.9.9.9.9.9.9.9.9.9.9.9.9.9.9.$.Q u 0 ..1.9.9.9.9.9.9.9.9.9.9.9.9.9.9.9.9.9.9.9.9.9.9.9.9.9.9.9...S ",
";.1.9.9.9.9.9.9.9.9.9.9.9.9.9.9.9.9.9.9.9.9.9.9.9.9.9.9.9.1.) u a | 1.9.9.9.9.9.9.9.9.9.9.9.9.9.9.9.9.9.9.9.9.9.9.9.9.9.9.9.| U ",
"%.2.9.9.9.9.9.9.9.9.9.9.9.9.9.9.9.9.9.9.9.9.9.9.9.9.9.9.9.$.) s 0 ..1.9.9.9.9.9.9.9.9.9.9.9.9.9.9.9.9.9.9.9.9.9.9.9.9.9.9.9...S ",
";.2.9.9.9.9.9.9.9.9.9.9.9.9.9.9.9.9.9.9.9.9.9.9.9.9.9.9.9.$.Q u p | 1.9.9.9.9.9.9.9.9.9.9.9.9.9.9.9.9.9.9.9.9.9.9.9.9.9.9.9.| U ",
";.2.9.9.9.9.9.9.9.9.9.9.9.9.9.9.9.9.9.9.9.9.9.9.9.9.9.9.9.$.) p a | 1.9.9.9.9.9.9.9.9.9.9.9.9.9.9.9.9.9.9.9.9.9.9.9.9.9.9.9.{ S ",
"%.2.9.9.9.9.9.9.9.9.9.9.9.9.9.9.9.9.9.9.9.9.9.9.9.9.9.9.9.$.) 0 r | 1.9.9.9.9.9.9.9.9.9.9.9.9.9.9.9.9.9.9.9.9.9.9.9.9.9.9.9.| S ",
"-.1.9.9.9.9.9.9.9.9.9.9.9.9.9.9.9.9.9.9.9.9.9.9.9.9.9.9.9.$.) u u ..1.9.9.9.9.9.9.9.9.9.9.9.9.9.9.9.9.9.9.9.9.9.9.9.9.9.9.9.| S ",
"-.1.9.9.9.9.9.9.9.9.9.9.9.9.9.9.9.9.9.9.9.9.9.9.9.9.9.9.9.#.) u a | 1.9.9.9.9.9.9.9.9.9.9.9.9.9.9.9.9.9.9.9.9.9.9.9.9.9.9.9.{ U ",
"-.1.9.9.9.9.9.9.9.9.9.9.9.9.9.9.9.9.9.9.9.9.9.9.9.9.9.9.9.$.) 0 p | 1.9.9.9.9.9.9.9.9.9.9.9.9.9.9.9.9.9.9.9.9.9.9.9.9.9.9.9.{ S ",
"-.1.9.9.9.9.9.9.9.9.9.9.9.9.9.9.9.9.9.9.9.9.9.9.9.9.9.9.9.$.) u u | 1.9.9.9.9.9.9.9.9.9.9.9.9.9.9.9.9.9.9.9.9.9.9.9.9.9.9.9.{ U ",
"-.1.9.9.9.9.9.9.9.9.9.9.9.9.9.9.9.9.9.9.9.9.9.9.9.9.9.9.9.$.) 0 u | 1.9.9.9.9.9.9.9.9.9.9.9.9.9.9.9.9.9.9.9.9.9.9.9.9.9.9.9.{ S ",
"-.1.9.9.9.7.9.9.9.9.9.9.9.9.9.9.9.9.9.9.9.9.9.9.9.9.9.9.9.+.) 3 7 | 1.9.9.9.9.9.9.9.9.9.9.9.9.9.9.9.9.9.9.9.9.9.9.9.9.9.9.9.{ U ",
"h.B b b n n z N c c N c b N M c b b b N b z b b b b z b N z W     *.z b N N c c b b b b b z b b b N z b z N n n b b b b b b k P ",
"  I % % & @ $ $ $ $ $ $ $ $ $ $ % % % $ & $ % % % % % % $ d         G % % $ $ $ % % % & $ $ % % % $ $ $ % % % % % % $ % % % q   "
};
