/* XPM */
static char *a339bbfcc1044e98832d41a46ec8fbd7[] = {
/* columns rows colors chars-per-pixel */
"64 64 70 1 ",
"  c None",
". c #646464",
"X c #656565",
"o c #676767",
"O c #686868",
"+ c DimGray",
"@ c #6A6A6A",
"# c gray42",
"$ c #6C6C6C",
"% c #6D6D6D",
"& c gray43",
"* c #6F6F6F",
"= c gray44",
"- c #717171",
"; c #727272",
": c gray45",
"> c gray46",
", c #777777",
"< c #7C7C7C",
"1 c gray49",
"2 c #808080",
"3 c #848484",
"4 c #868686",
"5 c gray53",
"6 c #888888",
"7 c gray54",
"8 c gray55",
"9 c #8D8D8D",
"0 c #8E8E8E",
"q c gray56",
"w c gray57",
"e c #929292",
"r c #9A9A9A",
"t c gray62",
"y c #9F9F9F",
"u c #A0A0A0",
"i c gray63",
"p c #A2A2A2",
"a c #A4A4A4",
"s c #A5A5A5",
"d c gray65",
"f c #A7A7A7",
"g c gray66",
"h c #A9A9A9",
"j c #AAAAAA",
"k c gray67",
"l c #ACACAC",
"z c gray68",
"x c #AEAEAE",
"c c #AFAFAF",
"v c gray69",
"b c #B1B1B1",
"n c #B2B2B2",
"m c gray70",
"M c #B4B4B4",
"N c gray71",
"B c #B6B6B6",
"V c #B7B7B7",
"C c gray72",
"Z c #B9B9B9",
"A c gray73",
"S c #BBBBBB",
"D c #BCBCBC",
"F c #C0C0C0",
"G c gray76",
"H c gray77",
"J c #C5C5C5",
"K c gray79",
"L c #CACACA",
"P c #CDCDCD",
/* pixels */
" PSSDDSSSSDSSSSSDDSSSSDSSSSSDJ    LDDSSSDDSSSSDSSSSSDSSSSSDSSSF ",
"LMSMMSMSSMMSMSSMMSMSSMMSMSSMMcF,,LMMSMSMMSMSSMMSMSSMMSMSSMMSMScD",
"ccvvMvMvvvvMvvvvMvMvvvvMvvvvvkp-%scvMvvvMvMvvvvMvvvvvMvvvvvMvvsp",
"ccvvvvvvvvvvMvvvvvvvvvvvMvvvvkp--kcvvvvvvvvvvvvvMvvvvvMvvvvvvvst",
"ccMvvvMvvvvvvMvvMvvvMvMvvvvMvkp--kcvvvvvMvvvMvMvvvvMvvvMvMvMvvsp",
"ckvvvMvvMvMvvvMvvvvMvvvvMvvvvkp--scvvMvMvvvMvvvvMvvvMvvvvvvvMvsp",
"ckvvvvvvvvvMvvvvMvMvvvMvvMvMvkp-%kcvMvvvMvMvvvMvvMvMvMvMvMvvvvsp",
"ccvvvMvMMvvvMvMvvvvvvMvvvvvvvkp%-scvvvvMvvvvvMvvvvvvvvvvvvMvvvst",
"ccvvvvvvvvvMvMvvMvvvvvMvMvMvvkp%-scvMvvvvvvvMvvvMvMvMvMvvMvvvvsp",
"ccMvMvMvMvvvvvMvvvvMvMvvvvvvvkp--kcvvvvMvMvMvvvMvvvvvvvvvvMvMvsp",
"ccvMvvvMvMvMvvvvMvMvvvvvvvvvvkp-%kccMvMvMvvvMvMvvvMvvvMvvvvvvvst",
"ckvvMvvvvvvvMvMvvvvvvMvMvMvvckp--scvvvvvvvvMvvvvvMvvvMvvMvMvvvsp",
"cccvvMvMvvvvvMvvMvvvMvMvvvvvvkp--kccvvMvvvMvvvMvvvvvMvvvMvMvvvsp",
"ckvvvvvvMvMvvvMvvvvMvvvvvMvMckp%-scvvvvvvMvvvMvvvMvMvvvMvvvvvMsp",
"ccvvvMvvvvvMvvvvMvMvvvMvMvvvvkp--scvvvvvvvvvvvvvMvvvMvMvvvMvvvst",
"ccMvvvMvMvvvMvMvvvvvvMvvvvvMvkp-%kcvvMvMvMvMvMvMvvvMvvvvvMvvvvsp",
"ccvvvMvvvvvvvvvvvMvvvvvMvvMvMkp--scvvvvvMvvvMvvvvvvvvvMvMvvMvMsp",
"ckvvvvMvvvvMvMvvvvvvMvvvvvvvvkp--scvvMvvvvvvvvvvvMvMvvvvvvvvvvsp",
"r%####%#####%%##%##%#%%%%%%%%-----%%%%%%%%%%%%%%%%%%%%%%-%%%%%%w",
" 7%%%%%%%%%%%%%%%-%%%%-%%%%%%------%%-%%%-%-%%-%%%%-%-%%%%-%-%3 ",
"  ------------------------------------------------%----------%c ",
"  000000000000----0000000000000000000000000000%---000000000000  ",
" SDSSSSSSSSSSv0--0MDSSSSDSSDSSSSSSSSDSSSSDSSSc7--0SSSSSSSSSSSSM ",
"vcvvvvvvvvvvvcs-%kcvvvvvvvvvvvMvvvvvvvvvvvvvckp--kcvvvvvvvvvvvsp",
"cccvvvMvMvMvvcp--scvMvvvvvvvMvvvvvvvMvMvMvvvvkt-%kcvvMvMvvvvvvsp",
"ccvvvMvvvvvvvks%-scvvvvMvMvMvvvMvvvMvvvvvvvMckp--scvvvvvvvMvMvsp",
"ccvvvvvvvvMvvks%-scvMvMvMvvvMvMvMvMvvvMvMvMvvsp%-scvvMvvvvvvvvsp",
"cvvvvMvMvMvvccs--scvvvvvvvvMvvvvvvvvvMvvvvvvvkp-%kvvvvMvMvMvvvst",
"ccvvMvvvMvvvMcs--scvvvMvvvMvvvMvvvvvMvMvMvvvvsp--kcvvvvvvMvMvvsp",
"ccvvvvvMvvvMvks%-scvvvvvvMvvvMvvvMvMvvvvvvvMvkt--scvMvMvvvvvMvsp",
"cccvMvMvMvMvvkp--scvvvvvvvvvvvvvMvvvvvMvMvvvvkp%-sccvvvMvMvvvvsp",
"ckvvvvvvvvvvvcp--scvvMvMvMvMvMvMvvvMvMvvvvvvvkp--scvMvvvvvMvvvst",
"ccMvMvMvMvMvvks--scvvMvMvMvMvMvMMvvvMvMvvMvMvkp-%kccvMvMvvvMvMsp",
"ccvvvvvvvvvvvks--scvvvvvvvvvvvvvvvvMvvvvvvvvckp--scvvvvvMvvvvvsp",
"ccMvvvMvvvvvvcs-%scvvMvvvMvvvMvvMvMvvvMvvMvvvsp-%kccvMvvvMvMvvst",
"ckvvvMvvvMvvccs%-kvvvvMvvvMvvvMvvvvvvMvvvvMvvkp%-scvvvMvvvvvvvsp",
"ckvvMvvvvvvvvcp--scvvvvvvvvMvvvvvvvvMvMvvMvMvkp--kccvvvMvvvvvMsp",
"ccvvvvvMvMvMvks--scvMvMvMvvvMvMvvMvMvvvvvvvvvsp--scvvvvvMvMvvvsp",
"ccvvMvMvMvvvvcs--sccvvvMvMvMvvvvMvvvvvMvvMvvvkp%%scvvMvMvvvMvvst",
"ccvMvvvvvvvMccs--scvMvvvvvvvMvvvvvvMvMvvvvvvckp--kccvvvvMvvvvvsp",
"w-###########-,%--%%%#%#########%%#%##%####%%%,---%###%#%%##%##3",
" 1###########%----%#############%########o###%----%###########, ",
"  ----%------%-----%--------------%------%%-------%-%---%----%c ",
"  7000000000000000000070700001----1070000000700000000000000700  ",
" FSDSSSSSSSDSSSSSDSDSDSSSSSSSc1--3MDSSDSSSSSSSSSSSSSSSSDSSSSSDS ",
"MvMMvvMvMMvvvMvMvMvMvvMvMMvMvcs-%kvvMvMMvvMMvvMMvMMvMMvvvMvMvvkk",
"vcvvvvvvMvMvvvMvvvvvvvvvvvvvvcp--kcvvvMvvvvvvvvvvMvvvMvvvvvMvvpt",
"ccvMvMvvvvvvvMvvvMvMvMvvMvvvvks--skvvvvvMvMvMvMvvvvvvvMvMvvvvvsp",
"ckvvMvvvvvMvvvvvMvvvvvMvvvvvvks--kcvvvvvvvvvvvvvvvvMvvvvvMvvvvsp",
"ccvvvvvMvMvvvMvMvvvMvMvvvMvMvkp--scvvMvMvMvMvMvMMvvvMvMvvvMvMvsp",
"ccvvMvMvvvvvMvvvMvMvvvvvMvvvvcs-%kcvMvvvMvvvMvvvvMvMvvvMvvvvvvsp",
"ccvMvvvvvMvMvvvMvvvvvMvMvvvMvks%-scMvvvMvvvMvvvMvvvvMvvvMvMvvvst",
"ccMvvvMvMvMvvvvvMvvvMvMvvvMvvcs--kccvvMvMvMvvvMvvMvvvMvvvMvMvvsp",
"ckvvvMvvvvvvvMvMvvvMvvvvvMvvvks%-scvvMvvvvvvvMvvvvMvvvMvvvvvMvsp",
"ckvvvvvvvvMvMvvvMvMvvvMvvvvvvkp--kkvvvvvvvMvvvvvvvvvvvvvvMvvvvsp",
"ccvvvMvMvMvvvvvMvvvvvMvvvMvMvcs-%scvvMvMvMvvvMvMMvMvMvMvvvMvvvst",
"ccMvMvMvvvMvvvvvMvvvvvMvvMvMvkp--kcvvvvvvvMvMvvvvvvvvvvvvMvvvvsp",
"ccvvvvvvvMvvvMvMvvvMvMvvvvvvvks--scvvvMvvMvvvvvMMvMvMvMvvvMvMvsp",
"ccMvvvMvvvvvMvvvMvMvvvvvvMvvvcp--kcvvvvvvvvvMvMvvvvMvvvMvvvvvvsp",
"ckvvvMvvvMvMvvvMvvvvvMvMvvvvvks--skvMvMvvMvMvvvvMvvvMvvvMvMvvvst",
"ckvvvvvvMvvvvvvvvvvvvvvvvvvMvks--scvvMvvvvvvvvvvvMvvvvvMvvvvvvsp",
"ccvvvvvMvvvvvMvMvvvMvvvcMvvvckp77sccvvMvvcvvvvvcvvMvvvvvvvvcMvsp",
"S-ooooooooo.oooo....#.ooo.oooos  c#...oooo.ooooooooo...oooo...3k",
" v733733733733737737733737737t    s737733737373733737737377737p "
};
