/* XPM */
static char *ef8d4123cdf24dd8ee7db2de468a3f72[] = {
/* columns rows colors chars-per-pixel */
"64 64 256 2 ",
"   c gray25",
".  c #484848",
"X  c #505050",
"o  c #585858",
"O  c #606060",
"+  c #686868",
"@  c gray44",
"#  c gray47",
"$  c #808080",
"%  c #888888",
"&  c #909090",
"*  c #989898",
"=  c #A0A0A0",
"-  c gray66",
";  c gray69",
":  c gray72",
">  c #C0C0C0",
",  c #C8C8C8",
"<  c #D0D0D0",
"1  c #D8D8D8",
"2  c gray88",
"3  c gray91",
"4  c gray94",
"5  c #F8F8F8",
"6  c black",
"7  c black",
"8  c black",
"9  c black",
"0  c black",
"q  c black",
"w  c black",
"e  c black",
"r  c black",
"t  c black",
"y  c black",
"u  c black",
"i  c black",
"p  c black",
"a  c black",
"s  c black",
"d  c black",
"f  c black",
"g  c black",
"h  c black",
"j  c black",
"k  c black",
"l  c black",
"z  c black",
"x  c black",
"c  c black",
"v  c black",
"b  c black",
"n  c black",
"m  c black",
"M  c black",
"N  c black",
"B  c black",
"V  c black",
"C  c black",
"Z  c black",
"A  c black",
"S  c black",
"D  c black",
"F  c black",
"G  c black",
"H  c black",
"J  c black",
"K  c black",
"L  c black",
"P  c black",
"I  c black",
"U  c black",
"Y  c black",
"T  c black",
"R  c black",
"E  c black",
"W  c black",
"Q  c black",
"!  c black",
"~  c black",
"^  c black",
"/  c black",
"(  c black",
")  c black",
"_  c black",
"`  c black",
"'  c black",
"]  c black",
"[  c black",
"{  c black",
"}  c black",
"|  c black",
" . c black",
".. c black",
"X. c black",
"o. c black",
"O. c black",
"+. c black",
"@. c black",
"#. c black",
"$. c black",
"%. c black",
"&. c black",
"*. c black",
"=. c black",
"-. c black",
";. c black",
":. c black",
">. c black",
",. c black",
"<. c black",
"1. c black",
"2. c black",
"3. c black",
"4. c black",
"5. c black",
"6. c black",
"7. c black",
"8. c black",
"9. c black",
"0. c black",
"q. c black",
"w. c black",
"e. c black",
"r. c black",
"t. c black",
"y. c black",
"u. c black",
"i. c black",
"p. c black",
"a. c black",
"s. c black",
"d. c black",
"f. c black",
"g. c black",
"h. c black",
"j. c black",
"k. c black",
"l. c black",
"z. c black",
"x. c black",
"c. c black",
"v. c black",
"b. c black",
"n. c black",
"m. c black",
"M. c black",
"N. c black",
"B. c black",
"V. c black",
"C. c black",
"Z. c black",
"A. c black",
"S. c black",
"D. c black",
"F. c black",
"G. c black",
"H. c black",
"J. c black",
"K. c black",
"L. c black",
"P. c black",
"I. c black",
"U. c black",
"Y. c black",
"T. c black",
"R. c black",
"E. c black",
"W. c black",
"Q. c black",
"!. c black",
"~. c black",
"^. c black",
"/. c black",
"(. c black",
"). c black",
"_. c black",
"`. c black",
"'. c black",
"]. c black",
"[. c black",
"{. c black",
"}. c black",
"|. c black",
" X c black",
".X c black",
"XX c black",
"oX c black",
"OX c black",
"+X c black",
"@X c black",
"#X c black",
"$X c black",
"%X c black",
"&X c black",
"*X c black",
"=X c black",
"-X c black",
";X c black",
":X c black",
">X c black",
",X c black",
"<X c black",
"1X c black",
"2X c black",
"3X c black",
"4X c black",
"5X c black",
"6X c black",
"7X c black",
"8X c black",
"9X c black",
"0X c black",
"qX c black",
"wX c black",
"eX c black",
"rX c black",
"tX c black",
"yX c black",
"uX c black",
"iX c black",
"pX c black",
"aX c black",
"sX c black",
"dX c black",
"fX c black",
"gX c black",
"hX c black",
"jX c black",
"kX c black",
"lX c black",
"zX c black",
"xX c black",
"cX c black",
"vX c black",
"bX c black",
"nX c black",
"mX c black",
"MX c black",
"NX c black",
"BX c black",
"VX c black",
"CX c black",
"ZX c black",
"AX c black",
"SX c black",
"DX c black",
"FX c black",
"GX c black",
"HX c black",
"JX c black",
"KX c black",
"LX c black",
"PX c black",
"IX c black",
"UX c black",
/* pixels */
"5 5 # # * * - - O O , , ; ; - - $ $ o o $ $ - - * * ; ; > > > > > > : : - - # # o o & & ; ; # # - - , , , , o o & & + + & & > > ",
"5 5 # # * * - - O O , , ; ; - - $ $ o o $ $ - - * * ; ; > > > > > > : : - - # # o o & & ; ; # # - - , , , , o o & & + + & & > > ",
"4 4 2 2 4 4 > > * * 2 2 4 4 5 5 3 3 > > 2 2 2 2 2 2 2 2 1 1 2 2 2 2 2 2 2 2 3 3 2 2 $ $ < < > > 3 3 2 2 < < > > + + ; ; < < 4 4 ",
"4 4 2 2 4 4 > > * * 2 2 4 4 5 5 3 3 > > 2 2 2 2 2 2 2 2 1 1 2 2 2 2 2 2 2 2 3 3 2 2 $ $ < < > > 3 3 2 2 < < > > + + ; ; < < 4 4 ",
"1 1 , , 3 3 = = # # 4 4 3 3 4 4 5 5 > > 5 5 5 5 3 3 3 3 < < 3 3 2 2 2 2 2 2 2 2 * * . . - - , , 5 5 4 4 1 1 , , + + > > 1 1 5 5 ",
"1 1 , , 3 3 = = # # 4 4 3 3 4 4 5 5 > > 5 5 5 5 3 3 3 3 < < 3 3 2 2 2 2 2 2 2 2 * * . . - - , , 5 5 4 4 1 1 , , + + > > 1 1 5 5 ",
"> > > > , , & & % % 4 4 3 3 4 4 4 4 ; ; 3 3 5 5 5 5 5 5 5 5 2 2 2 2 2 2 3 3 3 3 < < O O : : 3 3 2 2 : : < < ; ; - - , , 4 4 5 5 ",
"> > > > , , & & % % 4 4 3 3 4 4 4 4 ; ; 3 3 5 5 5 5 5 5 5 5 2 2 2 2 2 2 3 3 3 3 < < O O : : 3 3 2 2 : : < < ; ; - - , , 4 4 5 5 ",
"= = : : - - - - $ $ 1 1 3 3 4 4 4 4 ; ; ; ; 4 4 1 1 5 5 5 5 5 5 4 4 4 4 4 4 2 2 % % % % , , 4 4 4 4 2 2 < < - - * * 1 1 < < , , ",
"= = : : - - - - $ $ 1 1 3 3 4 4 4 4 ; ; ; ; 4 4 1 1 5 5 5 5 5 5 4 4 4 4 4 4 2 2 % % % % , , 4 4 4 4 2 2 < < - - * * 1 1 < < , , ",
"; ; = = & & $ $ # # 1 1 1 1 3 3 3 3 ; ; , , 2 2 < < 2 2 4 4 5 5 4 4 4 4 4 4 , , * * $ $ : : > > < < < < 1 1 > > = = 4 4 : : , , ",
"; ; = = & & $ $ # # 1 1 1 1 3 3 3 3 ; ; , , 2 2 < < 2 2 4 4 5 5 4 4 4 4 4 4 , , * * $ $ : : > > < < < < 1 1 > > = = 4 4 : : , , ",
"= = % % & & $ $ O O ; ; , , - - < < - - : : > > > > 1 1 ; ; > > , , - - ; ; , , + + o o # # : : ; ; > > 2 2 + + $ $ , , > > % % ",
"= = % % & & $ $ O O ; ; , , - - < < - - : : > > > > 1 1 ; ; > > , , - - ; ; , , + + o o # # : : ; ; > > 2 2 + + $ $ , , > > % % ",
"+ + o o + + X X + + # # ; ; - - = = % % $ $ - - : : , , , , < < - - = = & & % % $ $ # # o o + + # # & & = = . . # # % % & & % % ",
"+ + o o + + X X + + # # ; ; - - = = % % $ $ - - : : , , , , < < - - = = & & % % $ $ # # o o + + # # & & = = . . # # % % & & % % ",
": : : : : : $ $ * * + + $ $ $ $ @ @ . . o o + + o o + + @ @ % % * * - - % % # # $ $ + + $ $ @ @ % % o o o o o o O O o o @ @ $ $ ",
": : : : : : $ $ * * + + $ $ $ $ @ @ . . o o + + o o + + @ @ % % * * - - % % # # $ $ + + $ $ @ @ % % o o o o o o O O o o @ @ $ $ ",
"< < : : ; ; 4 4 O O , , & & & & , , , , 4 4 5 5 5 5 , , 2 2 4 4 4 4 o o & & < < < < < < < < < < < < # # o o & & @ @ 1 1 2 2 2 2 ",
"< < : : ; ; 4 4 O O , , & & & & , , , , 4 4 5 5 5 5 , , 2 2 4 4 4 4 o o & & < < < < < < < < < < < < # # o o & & @ @ 1 1 2 2 2 2 ",
"2 2 4 4 1 1 = = O O - - < < 4 4 3 3 3 3 < < < < < < < < < < ; ; = = , , 4 4 3 3 3 3 3 3 3 3 3 3 3 3 > > - - * * # # 4 4 5 5 4 4 ",
"2 2 4 4 1 1 = = O O - - < < 4 4 3 3 3 3 < < < < < < < < < < ; ; = = , , 4 4 3 3 3 3 3 3 3 3 3 3 3 3 > > - - * * # # 4 4 5 5 4 4 ",
"4 4 2 2 < < 1 1 # # 2 2 4 4 4 4 4 4 4 4 5 5 3 3 3 3 4 4 3 3 3 3 ; ; > > 3 3 2 2 3 3 4 4 2 2 1 1 1 1 1 1 < < , , & & 5 5 4 4 4 4 ",
"4 4 2 2 < < 1 1 # # 2 2 4 4 4 4 4 4 4 4 5 5 3 3 3 3 4 4 3 3 3 3 ; ; > > 3 3 2 2 3 3 4 4 2 2 1 1 1 1 1 1 < < , , & & 5 5 4 4 4 4 ",
"4 4 1 1 , , - - $ $ 3 3 3 3 3 3 3 3 3 3 3 3 3 3 3 3 4 4 3 3 3 3 % % > > 3 3 3 3 3 3 4 4 3 3 2 2 3 3 1 1 1 1 < < & & > > > > , , ",
"4 4 1 1 , , - - $ $ 3 3 3 3 3 3 3 3 3 3 3 3 3 3 3 3 4 4 3 3 3 3 % % > > 3 3 3 3 3 3 4 4 3 3 2 2 3 3 1 1 1 1 < < & & > > > > , , ",
"- - , , > > & & $ $ : : > > > > 3 3 3 3 4 4 4 4 4 4 4 4 4 4 5 5 @ @ - - > > 3 3 3 3 2 2 4 4 3 3 3 3 2 2 1 1 < < & & : : - - > > ",
"- - , , > > & & $ $ : : > > > > 3 3 3 3 4 4 4 4 4 4 4 4 4 4 5 5 @ @ - - > > 3 3 3 3 2 2 4 4 3 3 3 3 2 2 1 1 < < & & : : - - > > ",
"= = * * & & @ @ o o - - > > 3 3 > > > > : : 2 2 3 3 < < : : - - @ @ = = 1 1 > > 2 2 4 4 2 2 3 3 3 3 > > > > : : & & > > ; ; - - ",
"= = * * & & @ @ o o - - > > 3 3 > > > > : : 2 2 3 3 < < : : - - @ @ = = 1 1 > > 2 2 4 4 2 2 3 3 3 3 > > > > : : & & > > ; ; - - ",
"$ $ $ $ # # # # O O + + : : , , , , 3 3 1 1 ; ; ; ; 3 3 3 3 4 4 o o & & , , 1 1 1 1 1 1 < < > > , , = = > > - - & & * * > > , , ",
"$ $ $ $ # # # # O O + + : : , , , , 3 3 1 1 ; ; ; ; 3 3 3 3 4 4 o o & & , , 1 1 1 1 1 1 < < > > , , = = > > - - & & * * > > , , ",
"# # $ $ $ $ # # @ @ O O + + @ @ & & - - , , : : : : : : , , % % = = o o < < , , , , : : : : > > : : * * , , X X @ @ $ $ % % , , ",
"# # $ $ $ $ # # @ @ O O + + @ @ & & - - , , : : : : : : , , % % = = o o < < , , , , : : : : > > : : * * , , X X @ @ $ $ % % , , ",
": : - - < < > > % % - - > > 3 3 = = - - = = * * & & % % $ $ @ @     o o + + + + + + : : > > , , ; ; - - $ $ X X o o + + + + + + ",
": : - - < < > > % % - - > > 3 3 = = - - = = * * & & % % $ $ @ @     o o + + + + + + : : > > , , ; ; - - $ $ X X o o + + + + + + ",
"3 3 4 4 2 2 1 1 * * 1 1 1 1 < < * * ; ; 2 2 3 3 3 3 2 2 2 2 2 2 : : = = > > > > : : + + + + = = * * @ @ $ $     o o = = - - 2 2 ",
"3 3 4 4 2 2 1 1 * * 1 1 1 1 < < * * ; ; 2 2 3 3 3 3 2 2 2 2 2 2 : : = = > > > > : : + + + + = = * * @ @ $ $     o o = = - - 2 2 ",
"2 2 2 2 2 2 4 4 - - 1 1 4 4 4 4 @ @ > > : : 3 3 3 3 2 2 2 2 < < 2 2 3 3 3 3 2 2 1 1 2 2 ; ; 2 2 4 4 3 3 - - O O * * > > 2 2 1 1 ",
"2 2 2 2 2 2 4 4 - - 1 1 4 4 4 4 @ @ > > : : 3 3 3 3 2 2 2 2 < < 2 2 3 3 3 3 2 2 1 1 2 2 ; ; 2 2 4 4 3 3 - - O O * * > > 2 2 1 1 ",
"2 2 < < < < 5 5 + + < < 3 3 , , # # 4 4 : : 5 5 1 1 1 1 < < 1 1 3 3 1 1 2 2 1 1 2 2 2 2 & & 3 3 3 3 3 3 < < : : = = 3 3 5 5 < < ",
"2 2 < < < < 5 5 + + < < 3 3 , , # # 4 4 : : 5 5 1 1 1 1 < < 1 1 3 3 1 1 2 2 1 1 2 2 2 2 & & 3 3 3 3 3 3 < < : : = = 3 3 5 5 < < ",
", , , , > > = = + + < < = = = = O O 4 4 > > 1 1 < < 2 2 4 4 2 2 3 3 4 4 2 2 4 4 1 1 3 3 O O : : < < 3 3 1 1 ; ; + + > > 5 5 ; ; ",
", , , , > > = = + + < < = = = = O O 4 4 > > 1 1 < < 2 2 4 4 2 2 3 3 4 4 2 2 4 4 1 1 3 3 O O : : < < 3 3 1 1 ; ; + + > > 5 5 ; ; ",
"; ; - - : : % % + + , , = = = = - - , , , , ; ; 1 1 2 2 , , < < 3 3 1 1 5 5 4 4 3 3 2 2 # # 2 2 2 2 < < , , ; ; + + > > ; ; : : ",
"; ; - - : : % % + + , , = = = = - - , , , , ; ; 1 1 2 2 , , < < 3 3 1 1 5 5 4 4 3 3 2 2 # # 2 2 2 2 < < , , ; ; + + > > ; ; : : ",
"@ @ O O O O + + + + , , , , * * O O : : 4 4 - - - - ; ; - - , , < < - - < < , , , , - - o o - - , , , , ; ; - - $ $ + + @ @ # # ",
"@ @ O O O O + + + + , , , , * * O O : : 4 4 - - - - ; ; - - , , < < - - < < , , , , - - o o - - , , , , ; ; - - $ $ + + @ @ # # ",
"% % % % $ $ + + % % + + & & + + $ $ @ @ X X $ $ + + + + - - + + + + + + $ $ $ $ @ @ $ $ + + o o # # % % & & % % o o & & @ @ @ @ ",
"% % % % $ $ + + % % + + & & + + $ $ @ @ X X $ $ + + + + - - + + + + + + $ $ $ $ @ @ $ $ + + o o # # % % & & % % o o & & @ @ @ @ ",
", , = = ; ; ; ; + + * * , , 2 2 2 2 3 3 3 3 2 2 1 1 & & + + = = = = * * & & = = 5 5 3 3 3 3 3 3 3 3 4 4 % % % % o o : : 5 5 4 4 ",
", , = = ; ; ; ; + + * * , , 2 2 2 2 3 3 3 3 2 2 1 1 & & + + = = = = * * & & = = 5 5 3 3 3 3 3 3 3 3 4 4 % % % % o o : : 5 5 4 4 ",
"3 3 < < , , > > = = > > 2 2 2 2 2 2 3 3 3 3 3 3 1 1 , , * * > > 2 2 2 2 > > 2 2 4 4 5 5 1 1 2 2 3 3 3 3 > > $ $ # # 3 3 < < 2 2 ",
"3 3 < < , , > > = = > > 2 2 2 2 2 2 3 3 3 3 3 3 1 1 , , * * > > 2 2 2 2 > > 2 2 4 4 5 5 1 1 2 2 3 3 3 3 > > $ $ # # 3 3 < < 2 2 ",
"1 1 1 1 1 1 < < - - 3 3 4 4 3 3 1 1 2 2 4 4 3 3 2 2 ; ; # # > > 3 3 3 3 > > 1 1 1 1 4 4 5 5 5 5 1 1 2 2 3 3 : : ; ; 3 3 < < < < ",
"1 1 1 1 1 1 < < - - 3 3 4 4 3 3 1 1 2 2 4 4 3 3 2 2 ; ; # # > > 3 3 3 3 > > 1 1 1 1 4 4 5 5 5 5 1 1 2 2 3 3 : : ; ; 3 3 < < < < ",
", , 1 1 4 4 , , = = < < < < < < 1 1 1 1 < < , , , , , , + + ; ; 2 2 2 2 , , 4 4 4 4 4 4 4 4 3 3 2 2 3 3 3 3 , , , , 4 4 , , > > ",
", , 1 1 4 4 , , = = < < < < < < 1 1 1 1 < < , , , , , , + + ; ; 2 2 2 2 , , 4 4 4 4 4 4 4 4 3 3 2 2 3 3 3 3 , , , , 4 4 , , > > ",
"- - ; ; 1 1 - - # # ; ; - - : : : : : : : : ; ; ; ; : : O O : : > > : : : : - - : : > > > > 2 2 1 1 2 2 2 2 > > & & < < ; ; = = ",
"- - ; ; 1 1 - - # # ; ; - - : : : : : : : : ; ; ; ; : : O O : : > > : : : : - - : : > > > > 2 2 1 1 2 2 2 2 > > & & < < ; ; = = ",
"* * * * > > o o & & ; ; = = - - = = = = : : : : > > , , o o * * > > ; ; , , - - > > : : > > > > > > > > 1 1 * * . . ; ; % % @ @ ",
"* * * * > > o o & & ; ; = = - - = = = = : : : : > > , , o o * * > > ; ; , , - - > > : : > > > > > > > > 1 1 * * . . ; ; % % @ @ ",
"@ @ o o . . O O # # @ @ O O @ @ & & = = $ $ % % % % $ $ O O # # % % * * * * , , - - % % # # & & + + + + + + * * + + + + + + X X ",
"@ @ o o . . O O # # @ @ O O @ @ & & = = $ $ % % % % $ $ O O # # % % * * * * , , - - % % # # & & + + + + + + * * + + + + + + X X "
};
