/* XPM */
static char *_f103b362cbd45d5e6bd4658ebf15484[] = {
/* columns rows colors chars-per-pixel */
"64 64 256 2 ",
"   c #2C1E11",
".  c #2D2011",
"X  c #342413",
"o  c #382614",
"O  c #3B2A15",
"+  c #3D2C18",
"@  c #3F3018",
"#  c #412F17",
"$  c #422E19",
"%  c #44311B",
"&  c #4A351C",
"*  c #4F381D",
"=  c #51391D",
"-  c #593917",
";  c #5B3B18",
":  c #4B3720",
">  c #4D3D23",
",  c #543C21",
"<  c #583E21",
"1  c #603F1A",
"2  c #5C4224",
"3  c #62401C",
"4  c #69461E",
"5  c #634626",
"6  c #624629",
"7  c #664826",
"8  c #654928",
"9  c #6B4720",
"0  c #6C4720",
"q  c #684926",
"w  c #6C4821",
"e  c #6B4C29",
"r  c #674D30",
"t  c #6E512E",
"y  c #6E5231",
"u  c #704F2B",
"i  c #73522C",
"p  c #7A562D",
"a  c #7B592F",
"s  c #7D582E",
"d  c #725532",
"f  c #765835",
"g  c #795630",
"h  c #7A5831",
"j  c #795A35",
"k  c #7B5C36",
"l  c #7D5930",
"z  c #7C5A34",
"x  c #7E5D35",
"c  c #5F5140",
"v  c #695845",
"b  c #706457",
"n  c #7A6F5B",
"m  c #815A2F",
"M  c #805A30",
"N  c #825C31",
"B  c #815E36",
"V  c #855D31",
"C  c #845F35",
"Z  c #836036",
"A  c #866238",
"S  c #896032",
"D  c #8A6234",
"F  c #8C6333",
"G  c #8C6234",
"H  c #8E6435",
"J  c #8A6338",
"K  c #896439",
"L  c #8C663A",
"P  c #8D673C",
"I  c #8E683B",
"U  c #8E683C",
"Y  c #916636",
"T  c #916738",
"R  c #946836",
"E  c #926839",
"W  c #916A3D",
"Q  c #926C3D",
"!  c #966A39",
"~  c #946B3C",
"^  c #956C3E",
"/  c #996B38",
"(  c #9A6D3A",
")  c #986E3E",
"_  c #9C6D39",
"`  c #9E6F3D",
"'  c #9E703B",
"]  c #A2723C",
"[  c #A3743D",
"{  c #A4733C",
"}  c #A5743C",
"|  c #A9773F",
" . c #AB783F",
".. c #966E40",
"X. c #997040",
"o. c #9B7242",
"O. c #9D7241",
"+. c #9E7442",
"@. c #A07442",
"#. c #A27644",
"$. c #A67641",
"%. c #A77942",
"&. c #A57845",
"*. c #AA7840",
"=. c #A97B46",
"-. c #A97C47",
";. c #AE7A40",
":. c #AE7C40",
">. c #AB7D48",
",. c #AD7E48",
"<. c #B07B40",
"1. c #B17D41",
"2. c #B17F45",
"3. c #B47E42",
"4. c #B57F44",
"5. c #AF8049",
"6. c #B58044",
"7. c #B5854C",
"8. c #B88245",
"9. c #B98446",
"0. c #BC8445",
"q. c #BA8548",
"w. c #B8864C",
"e. c #BD8648",
"r. c #BC874C",
"t. c #BB894F",
"y. c #BF884A",
"u. c #BD894E",
"i. c #BD8A50",
"p. c #B19644",
"a. c #B19945",
"s. c #AAA256",
"d. c #B2A247",
"f. c #B1A547",
"g. c #B1A14A",
"h. c #B1A24E",
"j. c #B1A448",
"k. c #B2A154",
"l. c #B2A259",
"z. c #B1A25F",
"x. c #A7A277",
"c. c #B1A263",
"v. c #C08748",
"b. c #C18847",
"n. c #C38B4B",
"m. c #C08A4C",
"M. c #C28C4E",
"N. c #C58A48",
"B. c #C78C49",
"V. c #C58D4D",
"C. c #C88C49",
"Z. c #C88F4E",
"A. c #C28D51",
"S. c #C59053",
"D. c #C79B5F",
"F. c #C89151",
"G. c #C89254",
"H. c #CB9451",
"J. c #CD9250",
"K. c #CC9453",
"L. c #CD9554",
"P. c #D1934F",
"I. c #D09755",
"U. c #D29856",
"Y. c #D59A50",
"T. c #D49A57",
"R. c #D39A59",
"E. c #DA9B55",
"W. c #D99D54",
"Q. c #D99E5B",
"!. c #DDA256",
"~. c #DBA05B",
"^. c #DAA05C",
"/. c #DDA15C",
"(. c #DFA45E",
"). c #E3A456",
"_. c #E0A35E",
"`. c #E1A45E",
"'. c #E4A45C",
"]. c #EDAC5E",
"[. c #EFB15D",
"{. c #F1B25D",
"}. c #F1B45E",
"|. c #E3A660",
" X c #E5A860",
".X c #E7AC61",
"XX c #E4AC64",
"oX c #ECAB62",
"OX c #EDAE60",
"+X c #EEAF65",
"@X c #E4B061",
"#X c #E7B468",
"$X c #EFB161",
"%X c #EFB065",
"&X c #E9B568",
"*X c #F0B166",
"=X c #F5B660",
"-X c #F9BC65",
";X c #F9BF6B",
":X c #D2C37E",
">X c #F4C36B",
",X c #FAC769",
"<X c #FCC26A",
"1X c #FCC46B",
"2X c #FBCC6B",
"3X c #FECD72",
"4X c #FAD473",
"5X c #FED275",
"6X c #FED771",
"7X c #FED574",
"8X c #FFDA73",
"9X c #FEE07F",
"0X c #FFE67A",
"qX c #FEE87A",
"wX c #FFE97C",
"eX c #FFEC7D",
"rX c #F5E482",
"tX c #FEE286",
"yX c #FEE581",
"uX c #FEE486",
"iX c #FFE388",
"pX c #FEE588",
"aX c #FEE986",
"sX c #FFED80",
"dX c #FFED85",
"fX c #FEE88A",
"gX c #FFEA8C",
"hX c #FEEE88",
"jX c #FEEE8E",
"kX c #FEEB90",
"lX c #FFEC91",
"zX c #FEF281",
"xX c #FEF787",
"cX c #FFF189",
"vX c #FEF58B",
"bX c #FFF48E",
"nX c #FFFA86",
"mX c #FEFE87",
"MX c #FEF989",
"NX c #FFF98D",
"BX c #FEFE89",
"VX c #FEFE8D",
"CX c #FEF091",
"ZX c #FFF792",
"AX c #FFF49B",
"SX c #FEFE91",
"DX c #FFFF96",
"FX c #FFFAA2",
"GX c #FFFFA7",
"HX c #FEFDAC",
"JX c #FFFEB1",
"KX c #FFFFBD",
"LX c #FFFFC4",
"PX c black",
"IX c black",
"UX c black",
/* pixels */
"o.o.s.s.s.f.f.f.j.j.j.j.j.j.j.j.j.j.j.j.j.j.d.d.a.a.a.p.p.p.p.p.p.p.p.p.p.p.p.p.p.p.p.p.p.a.a.k.k.z.z.c.c.c.l.l.h.g.g.g.g.x.x.x.",
"o.o.:XMXMXVXVXSXSXSXSXSXSXSXSXSXSXSXSXSXSXSXSXSXSXSXSXbXbXjXfXfXpXpXfXfXfXfXfXfXfXfXfXfXfXgXgXlXlXAXAXHXKXKXLXLXKXGXGXDXDXrXD.D.",
"W W @X6X6XzXzXBXVXVXVXVXVXVXVXVXVXVXVXVXVXVXVXVXVXVXVXVXVXVXNXNXbXbXhXpXpXpXpXpXiXiXpXpXpXpXpXuXuXpXpXpXCXCXFXFXJXHXHXZXZX4XD.D.",
"W W @X6X6XzXzXVXSXSXSXSXSXSXSXVXVXVXVXVXSXSXVXVXSXSXSXSXSXVXNXNXvXvXhXfXfXpXpXpXiXiXpXpXpXpXpXuXuXpXpXfXCXCXFXFXJXHXHXZXZX4XD.D.",
"4 4 *.!.!.2X2XeXBXBXVXVXVXVXVXVXVXVXVXVXVXVXVXVXVXVXVXVXVXVXVXVXVXVXVXBXBXvXvXhXaXaXtXtXtXiXiXpXpXpXpXpXfXfXcXcXhX9X9X>X>XH.W W ",
"4 4 %.!.!.2X2XeXBXBXVXVXVXVXVXVXVXVXVXVXVXVXVXVXVXVXVXVXVXVXVXVXVXVXVXNXNXvXvXhXaXaXtXtXtXiXiXpXpXpXpXfXhXfXcXcXhX9X9X>X>XH.W W ",
"4 4 L [ [ Y.Y.,XeXeXBXBXVXVXVXVXVXVXVXVXVXVXVXVXVXVXVXVXVXVXVXVXVXVXVXVXVXVXVXVXMXMXcXcXfXpXpXuXuXpXpXfXaXdXyXyX5X$X$Xe.e.Y x B ",
"4 4 L @.@.Y.Y.,XeXeXMXMXVXVXVXVXVXVXVXVXVXVXVXVXVXVXVXVXVXVXVXVXVXVXVXVXVXVXVXVXVXVXvXvXdXpXpXuXuXpXpXaXaXaXyXyX5X$X$Xe.e.L B x ",
"w w W ^ ^ %.%.W.,X,XqXqXnXBXBXBXBXVXVXVXVXVXVXVXVXVXVXBXBXVXVXVXVXVXBXBXBXVXVXVXVXVXBXBXBXMXMXhXhXaXaXuX9X9X3X3XOX8.8.D D V x k ",
"0 0 W ^ ^ O.O.w..X.X7X7XsXnXnXBXBXBXBXBXBXBXBXBXBXBXBXBXBXBXBXBXBXBXBXBXBXBXBXBXBXBXBXBXBXBXBXBXBXxXxXyX3X3X].].8.G G M M N k x ",
"0 0 W ....+.+.w..X.X7X7XsXnXnXBXBXBXBXBXBXBXBXBXBXBXBXBXBXBXBXBXBXBXBXBXBXBXBXBXBXBXBXBXBXBXBXBXBXxXxXyX3X3X].].8.G G M M N k k ",
"9 9 U ^ ^ O.O.#.i.i.&X&XyXSXSXSXSXSXSXVXBXBXBXBXBXBXBXBXBXBXBXBXBXBXBXBXBXBXBXBXBXBXBXBXBXBXBXmXmXzXzX8X{.{.0.0.Y N N M M N j j ",
"9 9 U ^ ^ O.O.#.i.i.&X&XyXSXNXDXDXSXSXVXBXBXBXBXBXBXBXBXBXBXBXBXBXBXBXBXBXBXBXBXBXBXBXBXBXBXBXmXmXzXzX8X}.}.0.v.Y N N M M N j j ",
"4 4 P Q Q X.X.@.&.&.t.t.#XtXtXkXgXjXjXdXsXsXwXwXqX0X0XqXqXqXqXqX0X0XqXqXqXqXqXqXqXqXqXqXqXqXqX0X0X6X6X}.b.n.R R V N N s s N j j ",
"4 4 K W W ....+.&.&.>.>.i..XXX;X;X<X<X<X<X<X1X1X1X<X<X-X-X=X{.{.{.{.{.{.{.{.{.{.{.{.{.{.}.}.}.[.[.).).0.! R S S Z m M s s l f f ",
"4 4 U W W ....+.&.&.>.>.i.XXXX;X;X<X<X<X<X<X1X1X1X<X<X-X-X=X{.{.{.{.{.{.{.{.{.{.{.{.{.{.}.}.}.[.[.).).e.! / F F V M M s s l f f ",
"4 4 K I I ^ ^ O.#.#.=.=.5.u.u././.+X+X*X*X*X*X*X*X%X%XoXoX'.E.E.P.P.C.C.C.C.C.C.C.C.C.C.B.B.B.N.N.3.3./ H H S S V s s s s l d d ",
"4 4 K I I ^ ^ O.#.#.=.=.5.u.u././.+X+X*X*X*X*X*X*X%X%XoXoX'.E.E.P.P.Z.C.C.C.C.C.C.C.C.C.B.B.B.N.N.3.3./ H H S S V m m s s l h f ",
"3 3 B C C K K ^ @.@.&.&.,.w.w.R.R.|.|. X X X X X X X X X X X|.|././.W.J.J.V.V.v.0.0.0.0.9.0.0.8.8.*.*.R H H S S N s s p p a d d ",
"3 3 B C C K K ^ @.@.=.=.,.w.w.R.R.|.|. X X X X X X X X X X X|.|.`.`.R.J.J.V.V.v.0.0.0.0.0.0.0.8.8.*.*.R H H S S N s s p p a d d ",
"3 3 p i i p p N E E O.O.=.7.7.R.R.`.`.|.|.|.|.|.|.|.|.|.|.|.|.|.|.|. X|.|././.T.J.J.n.n.0.9.9.8.8.| | Y F F V V N s s p p p d d ",
"1 3 d p i i i p M M S S ! &.&.F.F././.`.`.`.`.`.`.`.`.|.|.`.`.`.`.`.`.`.`.`.`.`._._.~.~.T.Z.Z.e.e.| | H S S V V m p p p p p d d ",
"1 1 a i i i i p M M S S ! =.=.G.G././.`.'. X`.`.`.`.|.|.|.`.`.`.`.`.`.`.`.`.|.`._._.~.~.U.Z.Z.e.e.| | H S S V V m p p i p i d d ",
"; ; i i i i i i p p N N S Y Y 1.1.V.V.I.~.Q././._.`.`._._.`.(.(.`.`.`.`.`.`.`.`.`.`.`.`./././.R.R.r.r.( G G V V s p p p i i y y ",
"3 3 i i i i i p p s N N S Y Y 2.2.V.V.I.Q.Q././._.`.`._._.`.(.(.`.`.`.`.`.`.`.`.`.`.`.`.`././.R.R.r.r.( G G V V m p p i i p d y ",
"; ; i i i i i i p p m m V H H } } 3.3.6.0.0.V.V.L.Q.Q././././././././././././././././././././././.G.G.-.O.O.T T V p p p i i t t ",
"3 3 h i p i i p p p s s V G G } } 1.1.3.3.3.3.3.8.e.e.V.V.I.Q.Q.^.^./././././././././././././.Q.Q.S.S.-.#.#.O.O.^ L L B B h y y ",
"3 3 h g d p p p p p m m V G G } } 1.1.1.3.3.3.3.6.e.e.A.A.I.Q.Q.^.^./././././././././././././.Q.Q.S.S.-.#.#.O.O.^ L L B B h y y ",
"3 3 x B B Z Z A D D V V V D D { { 1.1.1.1.1.1.1.1.1.1.3.3.6.y.y.F.F.R.Q.Q.^.^.Q.Q.Q.^.^.Q.Q.Q.R.R.S.S.&.@.@.O.O.^ W W K K B f f ",
"3 3 x B B Z Z A Z Z C C V D D ] ] 1.1.1.1.1.1.1.1.1.1.1.1.8.y.y.F.F.T.Q.Q.^.^.Q.Q.Q.^.^.Q.Q.Q.Q.Q.S.S.=.@.@.O.O.) W W K K B f f ",
"3 3 z B B A A L W W ^ ^ ~ ! ! $.$.1.1.1.1.1.1.1.1.1.1.1.1.1.1.1.1.1.8.M.M.L.L.R.Q.Q.Q.Q.Q.R.Q.R.R.A.A.&.O.O.X.X.^ U U A A B d d ",
"3 3 z B B A A L W W ^ ^ ~ ~ E $.$.1.1.1.1.1.1.1.1.1.1.1.1.1.1.1.4.4.9.M.M.I.I.R.Q.Q.Q.Q.Q.Q.R.R.R.A.A.&.O.O.X.X.^ U U A A B f f ",
"3 3 j B B A A L W W ^ ^ X.%.&.u.u.V.V.q.1.1.1.1.1.<.<.<.<.:.<.<.;.;.:.1.1.4.4.n.K.K.R.R.R.R.Q.R.R.A.A.#.X.X.^ ^ W L L A A x d d ",
"1 1 h x x A A K W W ^ ^ O.&.&.S.S.R.R.U.F.F.e.e.1.;.;.;.;.:.;.;.;.;.<.;.;.;.;.;.4.4.y.y.K.R.R.R.R.A.A.#.X.X.^ ^ W K K Z Z z d d ",
"1 1 j x x A A L W W ^ ^ X.&.&.S.S.R.R.U.F.F.e.r.6.;.;.;.;.:.;.;.;.;.<.;.;.;.;.1.4.4.y.y.H.R.R.R.R.A.A.#.X.X.^ ^ W K K Z Z z d d ",
"; ; e t i d d B L L ^ ^ O.&.&.A.A.R.R.R.R.R.R.R.F.e.e.1.1.;.;.;.;.;.;.:.:.;.;.;.;.;.<.<.6.m.m.G.G.A.A.#.X.X.^ ^ U K K Z Z z d d ",
"; ; t t t i g B L L ^ ^ X.&.&.S.S.R.R.R.R.R.R.R.F.e.e.1.1.;.;.;.;.;.;.:.:.;.;.;.;.;.<.<.6.m.m.K.K.i.i.#.X.X.^ ^ U K K Z Z z d d ",
"; ; e 8 8 8 8 e d i B B ~ #.#.A.A.R.R.R.Q.R.R.R.R.R.R.F.F.q.1.1.;.;.:.;.;.;.;.;.;.;.;.;.;.:.:.6.6.6.6.O.X.X.^ ^ U K K Z Z z d d ",
"; ; e 8 8 8 8 e e e i i h W W u.u.R.R.R.R.R.R.R.R.R.R.R.R.I.M.M.6.6.;.;.;.;.;.;.;.;.;.;.;.;.;. . .' ' H W W W W U K K Z Z z d d ",
"; ; e 8 8 8 8 8 u e u u h ~ ~ u.u.R.R.R.R.R.R.R.R.R.R.R.R.I.M.M.6.6.;.;.;.;.;.;.;.;.;.;.;.;.;. . .' ' L W W ~ ~ U K K Z Z z y y ",
"; ; e 8 8 5 5 e e e u u i l l @.@.A.A.R.R.R.R.R.R.R.R.R.R.R.R.R.F.F.9.;.;.;.;.;.;.;.;.;.;.;.;. . ._ _ N M M J J L K K B B z d d ",
"; ; e 8 8 5 5 e e e u u i l l $.@.A.A.R.R.R.R.R.R.R.R.R.R.R.R.R.G.G.9.;.;.;.;.;.;.;.;.;.;.;.;. . ._ _ N M M J J L K K B B z y y ",
"- - 8 8 8 7 7 8 e u u u i g g T ! $.$.m.R.R.R.R.R.R.R.R.R.R.R.R.R.R.L.q.q.;.;.;.;.;.;.;.;.;.;. . ._ _ N p p p p B A A B B z y y ",
"; ; e 8 8 5 5 q e e u u i p p T T ` ` $.u.u.R.R.R.R.R.R.R.R.R.R.R.R.R.L.L.9.9.;.;.;.;.;.;.;.;. . ._ _ M p p p i i h h B B z y y ",
"; ; 8 8 8 5 5 q e e u u i g g T T ` ` $.u.u.R.R.R.R.R.R.R.R.R.R.R.R.R.L.L.9.9.;.;.;.;.;.;.;.;. . ._ _ M p p i p i l h B B z y y ",
"- - e 8 8 5 5 e e e e e i p p T T ` ` ' $.$.A.A.R.R.R.R.R.R.R.R.R.R.R.R.R.F.F.2.;.;. . . .;.;.| | ( ( V p p p i i u u g g h d d ",
"- - 8 8 8 5 q 8 e e i i i g g T T ` ` ' $.$.A.A.R.R.R.R.R.R.R.R.R.R.R.R.R.F.F.4.*.*. . . .;.*.| | ( ( N p p p p i u u g g j y y ",
"- - e 8 8 5 5 e e e e e i p i G G ! ! ! ! ! $.$.A.G.G.G.G.S.G.G.G.G.G.S.S.S.S.6.} } } } { ] { ] ] R R s p p i i i e e e e d d d ",
"- - 8 8 8 5 5 6 e e i i i i p G J ! ! ! ~ ( &.&.A.G.G.G.G.G.G.G.G.G.G.G.G.S.S.7.} } [ [ ] { { ] ] R R s p p p p i e u i t i d y ",
"- - 8 7 7 5 5 e e e e e i u e i i p p l g g M M ) &.&.#.#.#.#.#.#.#.#.#.#.#.#.) V V V V V V V V V p p i p p i i u u e e e i y y ",
"- - e 8 8 5 5 8 e e e e e 5 5 2 2 , < , , , , , e t i y t y t t i d i y t i i e 2 5 2 2 2 2 2 2 2 5 5 e i i i i i e u q e e y y ",
"- - 8 8 8 5 5 8 e e e e e 5 5 < < , , , < , , , 8 i y t t t t t y t y t t y y e 2 2 2 2 2 2 2 2 2 5 5 e u u i i u u e e e e y y ",
"- - 8 8 8 5 5 7 e e 6 6 2 < < & = & & & & & & & 2 6 6 6 6 6 6 6 6 6 6 6 6 6 6 2 = = = = = = = = = = = 5 q q e e e e e q q e y y ",
"- - e 8 8 5 5 q 6 8 5 5 5 , , , & & & & & & & & 2 6 6 6 6 6 6 6 6 6 6 6 6 6 8 2 , = = = = = = = = < = 2 7 7 e e u e e q e e y y ",
"- - 8 8 8 5 5 5 2 5 < < & & & $ % % % % $ % & & , 2 2 2 2 2 2 2 2 2 2 2 2 2 2 < & & & & & & & & & & & = < < 5 5 7 q q q 7 e y y ",
"- - 8 6 6 2 2 < = = & & $ $ + + + + + + $ + % % , , , , , , , , , , , , , , , > % % $ $ % % % $ $ $ $ % & & = = < 5 5 7 7 i y y ",
"- - e 6 6 2 5 < , = & & $ + $ + + $ $ $ + $ & & , , , , , , , , , , , , , , , , % % $ $ % # % $ $ $ $ % & & = = < 5 2 7 7 t y y ",
"- - 8 2 2 , = & $ % O O O O X O O o o o + + % % : : : : : : : : : : : : : : : % O # # O O O O # # O O O O O $ $ & = = 2 2 i y y ",
"- - 8 2 2 , , & % % + + o o O X O O O O + + & & & & : : : : : : : & : : : & & % $ O O + # + O O O + + O # O $ $ & = = 5 2 t y r ",
"- = 2 = = % % O X X X X X X X X X X X X + + % % % % % % % % % % % % % % % % % O X o o o X X o o o o o o X o o o O % % , , 8 r r ",
"= - 5 , > % % + X X X X X X X X X X X X + + % % % % % % % % % % % % % % % + + O O X o o O o o X o X O X o X X O O % % , , 8 r r ",
"b b , + # X X .                   . . X + O + + + + + + + + + + + + + O O X X X . X X X . . . X X X . X X X X . X o o & & , v v ",
"b b n > > % % @ @ @ @ @ + + + @ + % % & & & % & % % & % % & % % % % % $ $ O O O O O O O O O O O O O O O O O O O O O O % % c v v ",
"b b n > > @ @ @ @ @ @ @ % @ % + % # % & * * & & & & % & & % & & & & % # # O # O O O O O O O O O O O O O O O O O O O O & & c v v "
};
