/* XPM */
static char *_85744a89c1e408aaac1c001264d98ca[] = {
/* columns rows colors chars-per-pixel */
"64 64 125 2 ",
"   c None",
".  c #161E22",
"X  c #0F2027",
"o  c #0C232A",
"O  c #162126",
"+  c #1E2224",
"@  c #162228",
"#  c #16292E",
"$  c #1F2A2D",
"%  c #1E292E",
"&  c #092833",
"*  c #0A2E38",
"=  c #0A2E3A",
"-  c #102830",
";  c #172D33",
":  c #252121",
">  c #252323",
",  c gray14",
"<  c #262525",
"1  c gray15",
"2  c #2D2B2D",
"3  c #2E2D2D",
"4  c #2F2D2F",
"5  c #2F2F2F",
"6  c #302D2C",
"7  c #302E2E",
"8  c #233339",
"9  c #263238",
"0  c #0C3340",
"q  c #0B3541",
"w  c #0F3541",
"e  c #133741",
"r  c #143842",
"t  c #153B47",
"y  c #0B404F",
"u  c #1A404C",
"i  c #0E4050",
"p  c #0D4357",
"a  c #0F4757",
"s  c #0D4859",
"d  c #0D495D",
"f  c #0D4D5F",
"g  c #1C4654",
"h  c #10485A",
"j  c #184D5E",
"k  c #2B4551",
"l  c #2C4650",
"z  c #0E4E60",
"x  c #0E4F64",
"c  c #1C4F62",
"v  c #0F5065",
"b  c #0F5265",
"n  c #0E5066",
"m  c #0F5569",
"M  c #1B5365",
"N  c #1E5366",
"B  c #10566A",
"V  c #14556A",
"C  c #11566D",
"Z  c #10576E",
"A  c #115A6F",
"S  c #175F73",
"D  c #125F78",
"F  c #145F78",
"G  c #255C71",
"H  c #245E74",
"J  c #12607A",
"K  c #156079",
"L  c #13657D",
"P  c #456C7A",
"I  c #466D7C",
"U  c #136681",
"Y  c #146982",
"T  c #156985",
"R  c #156887",
"E  c #146A86",
"W  c #156B87",
"Q  c #156D87",
"!  c #156E88",
"~  c #156F89",
"^  c #166E8A",
"/  c #19708D",
"(  c #187290",
")  c #1B7593",
"_  c #197695",
"`  c #197999",
"'  c #1C7C9C",
"]  c #296781",
"[  c #216883",
"{  c #266B82",
"}  c #2C6A84",
"|  c #356C83",
" . c #227B98",
".. c #227B9C",
"X. c #347F9E",
"o. c #1E7EA2",
"O. c #1C81A2",
"+. c #2086AC",
"@. c #2887AA",
"#. c #2288AA",
"$. c #2089AC",
"%. c #2388AD",
"&. c #218AAD",
"*. c #2088AE",
"=. c #388DAC",
"-. c #298DB7",
";. c #2790B7",
":. c #2F91B5",
">. c #2591B9",
",. c #2691B8",
"<. c #3897BA",
"1. c #498097",
"2. c #4F92AD",
"3. c #5199B1",
"4. c #2F9CC9",
"5. c #2F9DCB",
"6. c #309DCA",
"7. c #4EA6D8",
"8. c #43A9D9",
"9. c #44A9D8",
"0. c #45AAD9",
"q. c #44AADA",
"w. c #5CB1D4",
"e. c #7BBAE2",
"r. c #7FC0ED",
/* pixels */
"  w.8.0.0.0.0.9.9.0.0.0.0.0.0.0.0.0.0.0.0.0.0.0.0.0.0.0.0.0.0.0.0.0.8.8.8.8.8.8.8.8.8.0.9.9.0.9.9.9.8.0.0.q.0.q.0.0.0.0.0.9.r.  ",
"3.%.5.5.5.5.5.4.4.6.6.6.6.6.6.6.4.4.5.4.5.4.4.5.4.4.5.4.5.4.5.5.4.5.5.5.4.5.4.5.5.4.4.4.4.4.4.5.4.4.4.5.4.5.5.4.5.4.5.5.5.5.7.e.",
"x m Q Q ! ^ ! ! E E Q W W W E W W W W W W W W W W W W W W W W W W W W W W W W W W W W W E W W W W W W W W W W ! ! ! ^ ^ Q Q +.>.",
"n S E E i @ o D Q E E W W W W W W W W W W W W W W W W W W W W W W W W W W W W W W W W W W W W W W W W W W W W ! U w @ & E Q $.>.",
"n m E J > > > - x ! W W W W W W W W W W W W W W W W W W W W W W W W W W W W W W W W W W W W W W W W W W W W W E j > , , q ^ O.>.",
"n S E c 4 5 4 % a ! W W W W W W W W W W W W W W W W W W W W W W W W W W W W W W W W W W W W W W W W W W W W W / 8 5 5 2 r ^ %.>.",
"n Z E ..5 5 5 g J ! W W W W W W W W W W W W W W W W W W W W W W W W W W W W W W W W W W W W W W W W W W W W W O.G 5 7 7 C ~ O.4.",
"n Z E ( X.k H ^ ! ! W W W W W W W W W W W W W W W W W W W W W W W W W W W W W W W W W W W W W W W W W W W W W ! o.| k [ ! ~ O.>.",
"x m E ! @.-.O.W E W W W W W W W W W W W W W W W W W W W W W W W W W W W W W W W W W W W W W W W W W W W W W W ! ! :.;.` ! W +.>.",
"n S W W W W W W W W W W W W W W W W W W W W W W W W W W W W W W W W W W W W W W W W W W W W W W W W W W W W W W W ! W W W W %.>.",
"n C W W W W W W W W W W W W W W W W W W W W W W W W W W W W W W W W W W W W W W W W W W W W W W W W W W W W W W W W W W W ! O.>.",
"n Z W W W W W W W W W W W W W W W W W W W W W W W W W W W W W W W W W W W W W W W W W W W W W W W W W W W W W W W W W W W ^ *.>.",
"n Z E E W W W W W W W W W W W W W W W W W W W W W W W W W W W W W W W W W W W W W W W W W W W W W W W W W W W W W W W W W W +.>.",
"x S W W W W W W W W W W W W W W W W W W W W W W W W W W W W W W W W W W W W W W W W W W W W W W W W W W W W W W W W W W W W +.>.",
"n m W W W W W W W W W W W W W W W W W W W W W W W W W W W W W W W W W W W W W W W W W W W W W W W W W W W W W W W W W W W W +.>.",
"m S W W W W W W W W W W W W W W W W W W W W W W W W W W W W W W W W W W W W W W W W W W W W W W W W W W W W W W W W W W W W %.>.",
"x Z W W W W W W W W W W W W W W W W W W W W W W W W W W W W W W W W W W W W W W W W W W W W W W W W W W W W W W W W W W W W O.4.",
"m Z W W W W W W W W W W W W W W W W W W W W W W W W W W W W W W W W W W W W W W W W W W W W W W W W W W W W W W W W W W W W O.>.",
"n Z ! W W W W W W W W W W W W W W W W W W W W W W W W W W W W W W W W W W W W W W W W W W W W W W W W W W W W W W W W W ^ R O.4.",
"n m W W W W W W W W W W W W W W W W W W W W W W W W W W W W W W W W W W W W W W W W W W W W W W W W W W W W W W W W W W E R O.>.",
"n m W W W W W W W W W W W W W W W W W W W W W W W W W W W W W W W W W W W W W W W W W W W W W W W W W W W W W W W W W W E E *.>.",
"n S W W W W W W W W W W W W W W W W W W W W W W W W W W W W W W W W W W W W W W W W W W W W W W W W W W W W W W W W W W ^ E O.>.",
"n Z W W W W W W W W W W W W W W W W W W W W W W W W W W W W W W W W W W W W W W W W W W W W W W W W W W W W W W W W ! W R R *.4.",
"m Z W W W W W W W W W W W W W W W W W W W W W W W W W W W W W W W W W W W W W W W W W W W W W W W W W W W W W W W W E E ^ E O.>.",
"n Z W W W W W W W W W W W W W W W W W W W W W W W W W W W W W W W W W W W W W W W W W W W W W W W W W W W W W W W W W W W W *.>.",
"n m W W W W W W W W W W W W W W W W W W W W W W W W W W W W W W W W W W W W W W W W W W W W W W W W W W W W W W W W W W W W O.>.",
"n Z W W W W W W W W W W W W W W W W W W W W W W W W W W W W W W W W W W W W W W W W W W W W W W W W W W W W W W W W W W E E *.4.",
"n C W W W W W W W W W W W W W W W W W W W W W W W W W W W W W W W W W W W W W W W W W W W W W W W W W W W W W W W W W W ^ R O.>.",
"n S W W W W W W W W W W W W W W W W W W W W W W W W W W W W W W W W W W W W W W W W W W W W W W W W W W W W W W W W W E E W *.>.",
"x Z W W W W W W W W W W W W W W W W W W W W W W W W W W W W W W W W W W W W W W W W W W W W W W W W W W W W W W W W W E W W O.>.",
"n Z ! W W W W W W W W W W W W W W W W W W W W W W W W W W W W W W W W W W W W W W W W W W W W W W W W W W W W W W W E ^ R E *.4.",
"n Z ! W W W W W W W W W W W W W W W W W W W W W W W W W W W W W W W W W W W W W W W W W W W W W W W W W W W W W W W E ^ R E o.>.",
"x C W W W W W W W W W W W W W W W W W W W W W W W W W W W W W W W W W W W W W W W W W W W W W W W W W W W W W W W W W W W W *.>.",
"x S W W W W W W W W W W W W W W W W W W W W W W W W W W W W W W W W W W W W W W W W W W W W W W W W W W W W W W W W W W W W *.>.",
"m C W W W W W W W W W W W W W W W W W W W W W W W W W W W W W W W W W W W W W W W W W W W W W W W W W W W W W W W W W W E ^ O.4.",
"x C W W W W W W W W W W W W W W W W W W W W W W W W W W W W W W W W W W W W W W W W W W W W W W W W W W W W W W W W W W W E O.>.",
"m m E E W W W W W W W W W W W W W W W W W W W W W W W W W W W W W W W W W W W W W W W W W W W W W W W W W W W W W W W W W W *.>.",
"x S E E W W W W W W W W W W W W W W W W W W W W W W W W W W W W W W W W W W W W W W W W W W W W W W W W W W W W W W W W W W O.>.",
"m Z ^ E W W W W W W W W W W W W W W W W W W W W W W W W W W W W W W W W W W W W W W W W W W W W W W W W W W W W W W W W E ^ *.4.",
"x Z W W W W W W W W W W W W W W W W W W W W W W W W W W W W W W W W W W W W W W W W W W W W W W W W W W W W W W W W W W W E O.>.",
"n S W W W W W W W W W W W W W W W W W W W W W W W W W W W W W W W W W W W W W W W W W W W W W W W W W W W W W W W W W W W W *.>.",
"n m W W W W W W W W W W W W W W W W W W W W W W W W W W W W W W W W W W W W W W W W W W W W W W W W W W W W W W W W W W W W *.>.",
"n Z ^ W W W W W W W W W W W W W W W W W W W W W W W W W W W W W W W W W W W W W W W W W W W W W W W W W W W W W W W W W R ^ O.4.",
"n Z E E W W W W W W W W W W W W W W W W W W W W W W W W W W W W W W W W W W W W W W W W W W W W W W W W W W W W W W W W E E O.>.",
"n Z W W W W W W W W W W W W W W W W W W W W W W W W W W W W W W W W W W W W W W W W W W W W W W W W W W W W W W W W W W W W *.>.",
"n S W W W W W W W W W W W W W W W W W W W W W W W W W W W W W W W W W W W W W W W W W W W W W W W W W W W W W W W W W W W W O.>.",
"n A W W W W W W W W W W W W W W W W W W W W W W W W W W W W W W W W W W W W W W W W W W W W W W W W W W W W W W W W W W E E *.>.",
"n A W W W W W W W W W W W W W W W W W W W W W W W W W W W W W W W W W W W W W W W W W W W W W W W W W W W W W W W W W E ^ E o.4.",
"n A E E ^ E E E E W W W W W W W W W W W W W W W W W W W W W W W W W W W W W W W W W W W W W W W W W W W W W W W W W W W W W *.>.",
"b B E Q E E E ^ W W W W W W W W W W W W W W W W W W W W W W W W W W W W W W W W W W W W W W W W W W W W W W W W W W W W W W O.>.",
"n m E ! ^ E ^ R W W W W W W W W W W W W W W W W W W W W W W W W W W W W W W W W W W W W W W W W W W W W W W W W W W W W R ^ *.4.",
"n S W E E E E E W W W W W W W W W W W W W W W W W W W W W W W W W W W W W W W W W W W W W W W W W W W W W W W W W W W W E E O.>.",
"n S W W W W R E W W W W W W W W W W W W W W W W W W W W W W W W W W W W W W W W W W W W W W W W W W W W W W W W W W W W W W *.>.",
"x A E E W W ~ E W W W W W W W W W W W W W W W W W W W W W W W W W W W W W W W W W W W W W W W W W W W W W W W W W W W W W W *.>.",
"x m ! ^ W ! W ~ W W W W W W W W W W W W W W W W W W W W W W W W W W W W W W W W W W W W W W W W W W W W W W W W W W E W W W O.4.",
"x Z W ^ m = t ^ W W W W W W W W W W W W W W W W W W W W W W W W W W W W W W W W W W W W W W W W W W W W W W W W W s = x ^ W O.>.",
"v A E T r . . x W W W W W W W W W W W W W W W W W W W W W W W W W W W W W W W W W W W W W W W W W W W W W W E Q D ; + @ L E O.>.",
"v A W S < 1 > # z W W W W W W W W W W W W W W W W W W W W W W W W W W W W W W W W W W W W W W W W W W W W W W Q u , , > q ^ *.>.",
"v S W N 4 4 5 % d W W W W W W W W W W W W W W W W W W W W W W W W W W W W W W W W W W W W W W W W W W W W W W ) 9 5 5 3 t ^ *.>.",
"n A E #.7 7 7 M U W W W W W W W W W W W W W W W W W W W W W W W W W W W W W W W W W W W W W W W W W W W W W W O.{ 7 7 3 K ^ *.>.",
"n A E Q <.}  .W W W W W W W W W E E W W W W E E W W W W E E W W W W E E W W W W E E W W E E E Q W W W W E E W ! ` =.H ' Q Q %.>.",
"v A E Q W W W W W W W W W W W W E E W W W W E E W W W W E E W W W W E E W W W W E E W W ! Q E Q W W W W Q Q W W ^ ! ^ Q ^ Q O.>.",
"P p m m m m m m m m m m m m m m B B B B B B B B B B B B B B B B B B B B B B B B B B B B B B m m m m B B m m m m B m m m m m ^ 2.",
"  P x f z z z z z z z z z z z z z f f z z z z f f z z z z f f z z z z f f z z z z f f z z f z z z z v h z f f v f f x f x x 1.  "
};
