/* XPM */
static char *a4241f286cde47d5e14ee786cf731a81[] = {
/* columns rows colors chars-per-pixel */
"64 64 37 1 ",
"  c #1A1712",
". c #221E16",
"X c #241F18",
"o c #26211A",
"O c #2C251C",
"+ c #2F281F",
"@ c #30271D",
"# c #31291F",
"$ c #2F2921",
"% c #342D23",
"& c #382F24",
"* c #373025",
"= c #3A3226",
"- c #3D3529",
"; c #3F382E",
": c #40372A",
"> c #443A2D",
", c #483E2F",
"< c #463D30",
"1 c #493E31",
"2 c #474035",
"3 c #4C4133",
"4 c #4E4539",
"5 c #514536",
"6 c #544837",
"7 c #524738",
"8 c #55493A",
"9 c #594D3D",
"0 c #5D513F",
"q c #574D40",
"w c #5A4F40",
"e c #5D5241",
"r c #605544",
"t c #665B4A",
"y c #6A5E4C",
"u c #716351",
"i c #776A56",
/* pixels */
"73=<1=>%<q4;;q22>;2*;;<22:-*%=>,,>:==,>+-;%%>6=o--**%2:==232:5:&",
"4>%<=-*%>;q>*q<>**<-**>2::-*O*6,0>=>*6-*%*+%32=.=>=%=>:==>53#3#=",
"<>$1>=:$;;q>%422**2:;*;2*>-+.=3,6<:-=9,**-%-3>%O-33==-3=#,35#>==",
"4-%<:&:$*>1>$<<>**6>2-;;=>*OO>,>2>:,=3>*+>+:6-=+>3>:=:3*#333%-&3",
"1-:>::>@*=>q$<<*-*<>>=*>**=++>6*>%,:-,<*+*%:6>=+:3::=3>=*3=:%3#,",
"1=:::=:$=-<<%<1***<>>=*=*=%++*9,>*>->6,=+-*,6:+%393=%3=%23=3%-@>",
"4&><::=@%;71;12>+*<>,-**+-*++*06>=::->6*%%%>36O=<64-=2:==533=>@3",
"5&:1%&&$&&1-:1<<O-6>6**==**+O+6,=-6>*<,*%*%>33%+<-23>2===,%5**O>",
"3--3*##%&=>$:8>>+=,,,=++:==++%,3-=>,=6,*+*%:36=O-=33:32=::=3@=@3",
"5&:>-#+=$:<%:6,,*:,>,=O+:-->o+69>:>,:3,*+%+:33-O3=->=>>@3=>,=%@3",
"5#>:-*+;%:<::,1>%=6*>:.*=*>-++,9,-<=*><*+=+>3>>%3==:,53&3==,&@O3",
"3=:>;+o-$:>=>1,>+,6*:%+>*--=++,9=>::->>*.=-,63>=,=33=,-&3::3=@@=",
"3*-3-%o=@%3-,:>>+%,>,=+>*--*++-,=>6<>>6+.=-<36>+33=3=>%==2:3#%%=",
">:=>>>o*#%-->:,:+=>,-*+,+-:**+,6=-,:><<%.2=:>,6=53=:-&=>%:::-%%:",
">-::33O=%%:=:=,:+>=,*=+,*=:=-%,6*-,,:6>++>*-,>6+3:=:&-->=3:::=#2",
"3=,-8>+O*=>&>%>=%=*,>=+,:+-=*=3,*>,6>3>O*<=>3,>O3:%:@3&2-3=:2&&-",
"3=3:9<%%==5%>*:=O>@>,=@,=++%*+<,::18:<%O@::&,>1$::=&=:>=5>:::===",
"6=:%,,-+*=>-=%-*%:==:=*-%+**>*6,:111::&$%:,::>:&3:=:@=:=&,>>=-==",
"5>:=>3#%@-3>==6@==:=,:*-**%+=%,>&,111>:%:&:%::1>>:::%33:=>,:&,:=",
"5,:=,4O#@-:6:=3=@:==:-=:,=*>-+<>:11&:1&O&&::::8:>3::#3:::5>>+::#",
"5:-*5>*%*>33==,==,=-:%==,%*:*+*>:11:<1:O%>>;:&6:::::#3:::,5&%>%%",
"3:,#5->%--33==-:=,=:>++=:+%%%*+->11:<7<%O171:&6:%:,-::,:=33-#>%>",
"5>=*>%;+:>,3-%>=>6==:%%>-%-=>*+>1w1:<1>&O111::9:::>:=&3=:51&O=%=",
"5>;*0==%,-36==--=6>=>+=6-*:*>+*3118%<<:$$11:::9,-:==3#,:=51-+=#4",
":,,&5=2--233:*---,-==+*6=+**-%>,11q%>1:@O:>==>0>--&-<%>-&6<&=<>-",
":,,#5=2--3:3-&>-*>=>-%=,-*=>****191:>1&%$%>:&:6:=-=:-=:-:66=&>-1",
"3>>%:32==-=3&&3-::=,-+==>+<,<>%-,11@,,:@&:>:&:1:&:&:&:::,11>-:-<",
",>>=25=*&2--#&3&,>*=%o%,>*=3*-+-:>1&:,:O=>,>%:8&::O:-<,&,>1:=::1",
"5=4;3>#%=3====5,>:>>%O*:-:*,>>%-1:>%:1:@&>:<->7&:%$<&&:%>1<&=1<<",
"3>0>>=+>233>:=,3,>:=%%%::=*>:=<>1:,%>1:@:>:1>16%:=%=$->-5,5&O-=7",
",,9-2-#>363&==53,,=-%+O=<-*-,:--:11::<:X->:1:17O-*%%:&&>117:=1:4",
"=33=,>==353%==3:>6*=*+%>-**:,>-=:,::1::@&<<>-:>%>%=&&:>&:,<&O1::",
",24=-<*:,,>==-,-:5*-=+-:=*=:1-==:::11:@@&:&::>1&;&::%::%>81%$1&1",
"962*>6*-:,,>+=:=23=--+=;>%%:<--=:&:11%%%&,&>1:1O%::&X=::1q>:$,:8",
"6,>+->+->,,3,*>%-3#-*%*->%=:<%>*::1:1%&%&:>>11>&&-1:%&::>11:%>>&",
"62-*>>+-,3,,,%,--3=2%O*=>%--&%>=%:1:1@%%:::,11:&&&-:$$::>9,:$:::",
"6,,*>,+-3>36>=>:-3:-*#%*->=>>%=-11>:1&$:%&:>,q&>>::&%&:&11<&$&>1",
"6,>+>>**6636>=>>=-3-=+*%>-%*:%--q1:&1&%%:%>,11%>::-:X->%>11:O&&1",
">>:->9:=>336==>:=*3*%%O*>-%->#&=8e@&>%%%@O>:81&>&:;:O%>:1<1;O::>",
",<>>66%==6:0%=,>3%3%+*o=>>=->-#>11::>:@%:%>:91>1&<-:XO&:>11&o:&>",
",>>,>3=*,6>6%=,,-%:&====*%%:-o=,1:&%>,@&<&1:18>11<&>X$&11q1&$:&1",
">>>,*3<=-6-3*>,>==-==&%%*#*>-#&>::%=,,$&:&::17>111%<&$&>&11:%&%&",
"*><<-:=:-,>>==,3:#::=**#*%O&=O#5>>%=1>$$&-&&71:>-1&1&:%-&7:$%-&-",
"=-,<>*=,-,>==,6>522>==#=%=%=-@:5>>:&1>$%&&>&11><:<&1&%&-:1:%$&$&",
"->,3:+-=>33:*:3:3-:3=*@=*%==*#=5>>-%1-%&&:-%>1<>:1&>&$%-11>>O&&:",
"+><>===*:3,,=-3*6=*3=%%%*%*:=#-3>:=%1&%$%1-&>1:>:>-r1$$>11>>$&&&",
"*-:>:*=>:-33-3>=9=:5-=@=##>>-O=61>>%:>:%O1;:>1:::-:yr*%::11-%:&;",
"==:-<=%*3::3%:3:9==3*@@===>>*#=311&:1>:$o:1:11&&--&r1%&&:11;%:&$",
"%*>:,*+:,>6:->>:33=3-=#-=-3>=#>315%&:>:@O@<&<1:&:>%q<==*>;>>O:=O",
"*:**,-+,>-,>>=,,:>=5>#==#32-#&>31>%&,::$X.&%:<:&=>*q;><=:><>$>&O",
"+6>*>**:::,,>*6,3=36*#3-#,=&##::8:==1:$$X@&&>1&:&;%11=1=&1q:$:&O",
"=6>=,%*>,3,,>+6,>=45=#>*#>:=##3561&:>:&X.%$>,1$%&-&:<*1=-:6>X&:$",
"-9,*,>+:,,,6-%>=1&:>:%<&#,==##:31<&:,:%O &%&:1&&%::->&*;:>7>X&:$",
">0>%,-%:>,,,,*=-,&-,:&1<O>:-o=:>:>&><:&O.&&<::%:O:>:&;;>&:1-X&=$",
",9>*6=+>*6,6*>==r+-1:%1->:==o#3311&:1:-XX:%>::X:*:>-=%=:=>7<$&:=",
"39>:6>+-=,60*>*>u=-::%---:==O=>37>%::::X$-%:>:@&%;:::&=::=71O=-1",
"46,,,>***,6i=<*9w<=>:&%&>1:%X%,16:$>1>%.*=$&=:@&%:->:&:1>=11&=%:",
"6,,>6:+**39t*,>67><:&$%=:1:O@::11:-1::OO$%X::1X>%1>>&&>:>:>1::%&",
"26*=6-+*+606=<<6:&>:$=&&:1:X@&%11>>1::Oo:*$<>>X:&1=<&->>1%>1*&=$",
"49*>>***=,06;>;6:>::&=:>>,&@O:&16>>1:>$%%-%:>:O$-1=%%&1>rO11$&>$",
":3-<6**+*,03*<>3:&=::%>>>:%O@:&1,:&:>,&$:%$:>>$@-<-%%::>7&1>*>;%",
"><>39==+=26>*=-6>=::>::1:>&%%%::1::&,1:X-%=:>:=$%&=$$::=1:1>&-=$",
">,-33=*+*66,*,*<:=:&::$1:1:$@&:::::$19&O;&-:1,=%$&=:$&>-:>:>:>&X",
"<,=,6*:O:<3>*6->>%:%&:$,11&&@:,1::,:11:$>&$:11:@%&;-=::&-<:=->=%"
};
