/* XPM */
static char *_36bc844f2e148e9c6879a814c946a17[] = {
/* columns rows colors chars-per-pixel */
"64 64 203 2 ",
"   c None",
".  c #042231",
"X  c #042332",
"o  c #042432",
"O  c #042433",
"+  c #062534",
"@  c #062634",
"#  c #072735",
"$  c #062834",
"%  c #02293B",
"&  c #022A3B",
"*  c #062838",
"=  c #07293A",
"-  c #062A3B",
";  c #03293C",
":  c #032A3C",
">  c #032B3D",
",  c #032B3E",
"<  c #042A3D",
"1  c #042A3E",
"2  c #042C3F",
"3  c #132B38",
"4  c #122A39",
"5  c #132B3A",
"6  c #132B3B",
"7  c #142A38",
"8  c #142A39",
"9  c #142A3A",
"0  c #142A3B",
"q  c #132C3A",
"w  c #122C3B",
"e  c #142C39",
"r  c #142C3A",
"t  c #142C3B",
"y  c #132C3C",
"u  c #132E3D",
"i  c #132E3E",
"p  c #142C3C",
"a  c #142C3D",
"s  c #152E3C",
"d  c #142E3D",
"f  c #142D3E",
"g  c #142E3E",
"h  c #142E3F",
"j  c #1F363E",
"k  c #032B40",
"l  c #032C40",
"z  c #042D41",
"x  c #063143",
"c  c #143141",
"v  c #143143",
"b  c #153242",
"n  c #153345",
"m  c #143445",
"M  c #153547",
"N  c #1A3947",
"B  c #093F57",
"V  c #0D455F",
"C  c #21414F",
"Z  c #22404E",
"A  c #204456",
"S  c #254756",
"D  c #284554",
"F  c #274A5A",
"G  c #214B5C",
"H  c #0A4763",
"J  c #0B4966",
"K  c #0B4A66",
"L  c #0B4A67",
"P  c #0E4965",
"I  c #0D4A67",
"U  c #0A4A68",
"Y  c #0C4B6B",
"T  c #0B4D6B",
"R  c #0D4C6A",
"E  c #0C4C6B",
"W  c #0C4E6B",
"Q  c #0B4D6C",
"!  c #0B4F6E",
"~  c #0C4D6C",
"^  c #0C4E6C",
"/  c #0C5070",
"(  c #0D5271",
")  c #0C5272",
"_  c #0C5373",
"`  c #0C5175",
"'  c #0C5374",
"]  c #0C5275",
"[  c #0C5475",
"{  c #0D5576",
"}  c #0E5477",
"|  c #0E5677",
" . c #0F5678",
".. c #0F587A",
"X. c #0F587B",
"o. c #0F597C",
"O. c #0F5C7F",
"+. c #105373",
"@. c #105879",
"#. c #115B7D",
"$. c #105C7F",
"%. c #105E7F",
"&. c #255B73",
"*. c #2A5D74",
"=. c #295E76",
"-. c #2D657D",
";. c #105C80",
":. c #105D82",
">. c #135D83",
",. c #105E82",
"<. c #105E83",
"1. c #105F84",
"2. c #116085",
"3. c #116086",
"4. c #116087",
"5. c #146286",
"6. c #116389",
"7. c #11618A",
"8. c #10628A",
"9. c #10628B",
"0. c #11648A",
"q. c #10648B",
"w. c #11658C",
"e. c #11668E",
"r. c #14688F",
"t. c #126890",
"y. c #126991",
"u. c #136A91",
"i. c #126992",
"p. c #136A92",
"a. c #136A93",
"s. c #166A93",
"d. c #126B94",
"f. c #126B95",
"g. c #116A96",
"h. c #126A97",
"j. c #176A94",
"k. c #176A95",
"l. c #126C95",
"z. c #116C96",
"x. c #126D97",
"c. c #176C94",
"v. c #186B93",
"b. c #196C93",
"n. c #186B94",
"m. c #136E98",
"M. c #136F99",
"N. c #156E99",
"B. c #176F98",
"V. c #146F9C",
"C. c #14709B",
"Z. c #17709A",
"A. c #14709C",
"S. c #15729D",
"D. c #16749F",
"F. c #2E6B87",
"G. c #266B8C",
"H. c #286B8A",
"J. c #2C6F8E",
"K. c #306E8B",
"L. c #346E8A",
"P. c #317494",
"I. c #1573A1",
"U. c #1474A0",
"Y. c #1574A1",
"T. c #1574A2",
"R. c #1675A6",
"E. c #1676A6",
"W. c #1975A4",
"Q. c #1976A4",
"!. c #1876A5",
"~. c #1678A4",
"^. c #1678A6",
"/. c #1978A4",
"(. c #1878A5",
"). c #1878A6",
"_. c #177BAF",
"`. c #177CAF",
"'. c #197EAD",
"]. c #187CAE",
"[. c #187CAF",
"{. c #1B7EB1",
"}. c #1A7FB2",
"|. c #1A80B1",
" X c #1A82B1",
".X c #1A81B2",
"XX c #1A82B2",
"oX c #2D83AB",
"OX c #2C83AC",
"+X c #2F85AC",
"@X c #3180A5",
"#X c #3782A6",
"$X c #3382A8",
"%X c #3482A9",
"&X c #3886AA",
"*X c #338CB7",
"=X c #358CB7",
"-X c #388BB4",
";X c #348EB8",
":X c #788389",
">X c #79848A",
",X c #88969E",
"<X c #8B99A1",
/* pixels */
"  ;X|.|.|.|.|.|.|. X X|. X|. X X|. X X X|. X X X|. X|.|.|.%X        *X|. X X X X|. X X|.|. X|. X|.|.|.|. X|.|. X X|. X X X XOX  ",
"%XY.^.^.^.^.^.^.^.^.^.^.^.^.^.^.^.^.^.^.^.^.^.^.^.^.^.^.^.z.P.<X<X#XY.^.^.^.^.^.^.^.^.^.^.^.^.^.^.^.^.^.^.^.^.^.^.^.^.^.^.^.z.G.",
"k.z.C.C.C.C.C.C.C.C.C.C.C.C.S.C.C.C.C.C.C.C.C.C.C.C.C.C.C.e.@.c c 6.z.A.C.C.A.A.C.C.C.C.C.C.C.C.C.C.A.C.C.C.C.C.C.C.C.C.C.C.6._ ",
"v.z.C.C.C.C.C.C.C.C.C.C.C.C.C.C.C.C.C.C.C.C.C.C.C.C.C.C.C.e.@.a a q.g.A.C.C.C.C.C.C.C.C.C.C.C.C.C.C.C.C.C.C.C.C.C.C.C.C.C.A.6._ ",
"k.z.C.C.C.C.C.C.C.C.C.C.C.C.C.C.C.C.C.C.C.C.C.C.C.C.C.C.C.e.X.a g q.z.C.C.C.C.C.C.C.C.C.C.C.C.C.C.C.C.C.C.C.C.C.C.C.C.C.C.C.q.) ",
"v.z.C.C.C.C.C.C.C.C.C.C.C.C.C.C.C.C.C.C.C.C.C.C.C.C.C.C.C.e.X.a g q.z.C.C.C.C.C.C.C.C.C.C.C.C.C.C.C.C.C.C.C.C.C.C.C.C.C.C.C.q.) ",
"v.z.C.C.C.C.C.C.C.C.C.C.C.C.C.C.C.C.C.C.C.C.C.C.C.C.C.C.C.e.X.c g q.z.C.C.C.C.C.C.C.C.C.C.C.C.C.C.C.C.A.C.C.C.C.C.C.C.C.V.V.q.) ",
"k.z.C.C.C.C.C.C.C.C.C.C.C.C.C.C.C.C.C.C.C.C.C.C.C.C.C.C.C.e.X.a t q.z.C.C.C.C.C.C.C.C.C.C.C.C.C.C.C.C.C.C.C.C.C.C.C.A.A.N.M.q.) ",
"b.z.C.C.C.C.C.C.C.C.C.C.C.C.C.C.C.C.C.C.C.C.C.C.C.C.C.C.S.e.o.a a q.z.C.C.C.C.C.C.C.C.C.C.C.C.C.C.C.C.C.C.C.C.C.C.C.C.C.C.C.q.) ",
"c.z.C.C.C.C.C.C.C.C.C.C.C.C.C.C.C.C.C.C.C.C.C.C.C.C.C.C.C.e.o.g a q.z.C.C.C.C.C.C.C.C.C.C.C.C.C.C.C.C.C.C.C.C.C.C.C.C.C.C.C.q.) ",
"v.z.C.C.C.C.C.C.C.C.C.C.C.C.C.C.C.C.C.C.C.C.C.C.C.C.C.C.C.e.X.a a 6.z.C.C.C.C.C.C.C.C.C.C.C.C.C.C.C.C.C.A.C.C.C.C.C.C.C.N.V.q.) ",
"s.z.C.C.C.C.C.C.C.C.C.C.C.C.C.C.C.C.C.C.C.C.C.C.C.C.C.C.C.e.o.g c q.z.C.C.C.C.C.C.C.C.C.C.C.C.C.C.C.C.C.C.C.C.C.C.C.C.C.A.M.q.' ",
"b.z.C.C.C.C.C.C.C.C.C.C.C.C.C.C.C.C.C.C.C.C.C.C.C.C.C.C.C.e.X.a a q.z.C.C.C.C.C.C.C.C.C.C.C.C.C.C.C.C.C.C.C.C.C.C.C.C.C.A.C.q.) ",
"k.z.C.C.C.C.C.C.C.C.C.C.C.C.C.C.C.C.C.C.C.C.C.C.C.C.C.C.C.e.o.a i 6.z.C.C.C.C.C.C.C.C.C.C.C.C.C.C.C.C.C.C.C.C.C.C.C.C.C.C.C.q.) ",
"v.z.C.C.C.C.C.C.C.C.C.C.C.C.C.C.C.C.C.C.C.C.C.C.C.C.C.C.C.e.o.a a q.g.C.C.C.C.C.C.C.C.C.C.C.C.C.C.C.C.C.C.C.C.C.C.C.C.C.V.V.q.) ",
"k.z.C.C.C.C.C.C.C.C.C.C.C.C.C.C.C.C.C.C.C.C.C.C.C.C.C.C.V.e.X.c a e.z.C.C.C.C.C.C.C.C.C.C.C.C.C.C.C.C.C.C.C.C.C.C.C.A.A.N.M.q.) ",
"v.z.C.C.C.C.C.C.N.A.A.C.C.C.C.C.C.C.A.C.C.C.C.C.A.A.C.C.C.e. .a a q.z.A.C.C.V.S.A.A.A.A.A.A.V.S.C.C.C.C.A.A.A.A.C.C.A.C.C.C.q.) ",
"n.z.A.S.A.A.A.A.V.S.A.A.A.A.A.A.A.A.A.A.A.A.A.A.N.S.A.A.M.y.#.c a 6.z.A.A.A.V.V.A.A.A.A.A.A.V.V.A.A.C.A.A.V.A.A.A.A.A.A.A.A.9.) ",
"F./ / / ' ' ' ' ' ' ' [ ' ' ' ' ' ' ' ' ' ' ' ' ' ' ' ' ' / U a a R / ' ' ' ' ' ' ' ' ' ' ' ' ' ' ' ' ' ' ' ' ' ' [ ' ' ' ' Q &.",
"  S > : & & & & & & & : : : : : : : : : : : : : & < < < : x 0 8 8 i z : : : : : 2 > : z < : < : z z z z k z k z k z k z z z A   ",
"    8 8 8 8 8 8 8 8 8 t 8 8 8 0 8 t 8 t 8 8 8 8 8 8 8 8 8 t 8 8 8 0 8 8 8 8 0 8 8 8 8 8 8 8 0 8 8 8 8 8 8 0 8 8 8 8 t t 0 8 :X  ",
"    8 8 8 0 8 0 8 8 8 0 0 8 0 8 0 8 8 8 8 8 0 0 0 0 0 0 8 0 8 t 8 8 0 0 a 0 0 0 8 0 0 0 0 8 0 0 0 8 8 0 0 8 0 0 8 t 8 8 0 8 >X  ",
"  -X!.!.!.!.!.!.!.!.!./.!.k.n 8 0 n C./.!./.).^.!.!.^./.!.!.!.!././.!.!.!././.^./.^.)./.!.s.n 8 0 m N.!./.).).^.!./.!.!.!.!.@X  ",
"&XT.E.E.E.E.E.E.E.E.^.E.E.N.#.a a >.Y.E.E.E.^.E.E.E.E.^.E.^.E.^.E.E.E.E.E.E.E.E.E.).E.E./.z./ t 0 q.Y.E.E.E.E.E.^.E.E.E.E.E.z.J.",
"n.z.S.M.C.C.C.C.C.C.C.C.M.y.,.c a 2.z.S.C.C.C.C.C.C.C.C.C.C.C.C.A.A.C.C.C.C.C.C.C.C.C.C.C.6. .i i q.g.C.C.C.C.C.S.N.C.C.C.C.6.' ",
"k.g.C.V.C.C.C.C.C.C.C.C.S.y.,.a a 2.z.N.C.C.C.C.C.C.C.C.C.C.C.C.A.A.C.C.C.C.C.C.C.C.C.C.C.e. .a 0 6.g.C.C.C.C.C.M.S.C.C.C.C.q.) ",
"k.z.C.C.C.C.C.C.C.C.C.C.C.y.,.c a 2.z.S.C.C.C.C.C.C.C.C.C.C.C.C.C.C.C.C.C.C.C.C.C.C.C.C.C.q.@.a a 6.g.C.C.C.C.C.S.C.C.C.V.V.q.) ",
"k.z.C.C.C.C.C.C.C.C.C.C.V.y.,.a a 2.g.M.C.C.C.C.C.C.C.C.C.C.C.C.C.C.C.C.C.C.C.C.C.C.C.C.C.e.@.8 0 q.g.C.C.C.C.C.M.V.C.C.N.M.q.) ",
"k.z.C.C.C.C.C.C.C.C.C.C.C.y.,.a a 2.z.C.C.C.C.C.C.C.C.C.C.C.C.C.C.C.C.C.C.C.C.C.C.C.C.C.C.q.[ a a q.g.S.C.C.C.C.C.C.C.C.A.C.q.) ",
"v.z.C.C.C.C.C.C.C.C.C.C.C.y.,.a a 2.g.C.C.C.C.C.C.C.C.C.C.C.C.C.C.C.C.C.C.C.C.C.C.C.C.C.C.e. .i c 6.g.M.C.C.C.C.C.C.C.C.A.C.q.) ",
"k.z.C.C.C.C.C.C.C.C.C.C.C.y.,.a a 6.g.C.C.C.C.C.C.C.C.C.C.C.C.C.C.C.C.C.C.C.C.C.C.C.C.C.C.q.X.a 0 6.g.S.C.C.C.C.C.C.C.C.V.V.q.) ",
"v.z.C.C.C.C.C.C.C.C.C.C.C.y.,.c a 2.z.C.C.C.C.C.C.C.C.C.C.C.C.C.C.C.C.C.C.C.C.C.C.C.C.C.C.w.[ a i e.z.M.V.M.S.C.C.C.C.C.C.M.q.) ",
"k.z.C.C.C.C.C.C.C.C.C.C.C.s.,.a a 2.z.C.C.C.C.C.C.C.C.C.C.C.C.C.C.C.C.C.C.C.C.C.C.C.C.C.C.e. .c 0 q.g.C.S.M.V.C.C.C.C.C.C.C.6.' ",
"s.z.C.C.C.C.C.C.C.C.C.C.C.y.,.c a 2.z.C.C.C.C.C.C.C.C.C.C.C.C.C.C.C.C.C.C.C.C.C.C.C.C.C.C.q. .a a q.z.C.C.C.C.C.C.C.C.C.C.C.q.) ",
"v.z.C.C.C.C.C.C.C.C.C.C.C.y.1.a a 2.z.C.C.C.C.C.C.C.C.C.C.C.C.C.C.C.C.C.C.C.C.C.C.C.C.C.C.e.@.0 a q.z.C.C.C.C.C.C.C.C.C.V.V.q.) ",
"v.z.C.C.C.C.C.C.C.C.C.C.C.d.,.a a 2.z.C.C.C.C.C.C.C.C.C.C.C.C.C.C.C.C.C.C.C.C.C.C.C.C.C.C.q.@.8 a q.z.C.C.C.C.V.C.C.C.C.N.M.q.) ",
"k.z.C.C.C.C.C.C.C.C.C.C.C.y.2.c a 2.z.C.C.C.C.C.C.C.C.C.C.C.C.C.C.C.C.C.C.C.C.C.C.C.C.C.C.q.X.g a q.z.C.C.C.S.M.C.C.C.C.A.C.q.) ",
"s.z.C.C.C.C.C.C.C.C.C.C.S.y.,.a a 2.z.C.C.C.C.C.C.C.C.C.C.C.C.C.C.C.C.C.C.C.C.C.C.C.C.C.C.q. .a a 0.z.C.C.C.V.M.C.C.C.C.A.C.q.' ",
"k.z.C.C.C.C.C.C.C.C.C.C.C.y.,.c c 1.z.C.C.C.C.C.C.C.C.C.C.C.C.A.C.C.C.C.C.C.C.C.C.C.C.C.C.e. .a a q.c.C.C.V.S.S.C.C.C.C.V.M.q.) ",
"c.h.N.S.A.A.A.A.A.A.C.S.A.k.,.a 0 1.g.S.V.A.A.A.A.A.A.A.A.A.A.A.A.A.A.A.A.A.A.A.C.S.C.S.C.q. .a a e.g.C.S.M.M.V.A.A.V.V.S.V.q.' ",
"L.~ ~ ~ U ~ R ~ ~ R Q R ^ ^ K a 0 K R R ~ R R ~ R ^ R ^ R Q ~ R T R Q R ~ R ~ ~ R R Q U R K V a a U ~ R U T R ~ T R ~ ~ W R H *.",
"  D o o O X o X o O o o O - t 8 8 0 = o X o X o o o o o X o O o X o O O o o o o X o X O X < q 8 8 8 * o O X O o O O o o o o C   ",
"    8 0 8 8 8 0 8 8 8 8 q t 8 t 0 8 8 a 8 t 8 8 t 8 8 t 8 8 8 0 0 8 8 8 t 8 8 t 8 t 0 8 8 8 0 8 0 0 t 8 8 8 8 8 8 8 0 8 8 8 >X  ",
"    8 8 a t t a a 8 8 7 a a a g a a 8 a a g t a t a 8 t 8 a 8 8 8 t t a a a 8 t s g a a a a t t a s s g a 0 8 t i 8 a t a q >X  ",
"  *X'.'.'.'.'.[.'.'.'.'.'.|._.'._.`.'.'.'.'.[.'.'.'.`.`.'.N.c 0 0 c D.'.'.'.'.`.'.'.'._._.'.'.'.'.'.[.'.'.'.'.'.`.'.'.'.'.'.oX  ",
"$XD.E.^.^.~.^.Y.~.~.~.~.~.^.Y.~.~.~.E.~.^.~.~.E.~.^.~.~.^.N.$.0 a 5.D.^.~.~.~.~.^./.~.~.~.^.~.~.!.^.~.E.~.~.~.~.~.~.E.^.^.^.y.H.",
"s.z.C.C.C.C.C.C.C.C.C.C.C.C.C.C.C.C.C.C.C.C.C.C.C.C.C.C.C.e.;.i a 6.z.C.C.C.C.C.C.C.C.C.C.C.C.C.C.C.C.C.C.C.C.C.C.C.V.C.M.S.6.' ",
"b.z.C.C.C.C.C.C.C.C.C.C.C.C.C.C.C.C.C.C.C.C.C.C.C.C.C.C.C.y.;.i a e.z.C.C.C.C.C.C.C.C.C.C.C.C.C.C.C.C.C.C.C.C.C.C.C.M.S.V.M.q.' ",
"s.g.C.C.C.C.C.C.C.C.C.C.C.C.C.C.C.C.C.C.C.C.C.C.C.C.C.C.V.y.;.0 a q.z.C.C.C.C.C.C.C.C.C.C.C.C.C.C.C.C.C.C.C.C.C.C.C.C.C.C.C.6./ ",
"k.z.C.C.C.C.C.C.C.C.C.C.C.C.C.C.C.C.C.C.C.C.C.C.C.C.C.C.M.t.#.c g q.z.C.C.C.C.C.C.C.C.C.C.C.C.C.C.C.C.C.C.C.C.C.C.C.C.C.C.C.6.[ ",
"b.z.C.C.C.C.C.C.C.C.C.C.C.C.C.C.C.C.C.C.C.C.C.C.C.C.C.C.S.t.,.c g q.z.C.C.C.C.C.C.C.C.C.C.C.C.C.C.C.C.C.C.C.C.C.C.C.C.C.C.C.9.' ",
"s.z.C.C.C.C.C.C.C.C.C.C.C.C.C.C.C.C.C.C.C.C.C.C.C.C.C.C.M.t.#.g a q.z.C.C.C.C.C.C.C.C.C.C.C.C.C.C.C.C.C.C.C.C.C.C.C.C.C.C.A.6.' ",
"v.z.C.C.C.C.C.C.C.C.C.C.C.C.C.C.C.C.C.C.C.C.C.C.C.C.C.C.C.y.$.a a q.z.C.C.C.C.C.C.C.C.C.C.C.C.C.C.C.C.C.C.C.C.C.C.C.C.C.C.C.q.' ",
"k.z.C.C.C.C.C.C.C.C.C.C.C.C.C.C.C.C.C.C.C.C.C.C.C.C.C.C.C.e.,.g a q.g.C.C.C.C.C.C.C.C.C.C.C.C.C.C.C.C.C.C.C.C.C.C.C.C.C.C.C.q.' ",
"v.z.C.C.C.C.C.C.C.C.C.C.C.C.C.C.C.C.C.C.C.C.C.C.C.C.C.C.C.e.$.g a q.z.C.C.C.C.C.C.C.C.C.C.C.C.C.C.C.C.C.C.C.C.C.C.C.V.C.M.V.q.) ",
"k.z.C.C.C.C.C.C.C.C.C.C.C.C.C.C.C.C.C.C.C.C.C.C.C.C.C.C.C.s.,.a a q.z.C.C.C.C.C.C.C.C.C.C.C.C.C.C.C.C.C.C.C.C.C.C.C.M.S.V.M.7.' ",
"n.z.C.C.C.C.C.C.C.C.C.C.C.C.C.C.C.C.C.C.C.C.C.C.C.C.C.C.C.e.$.c a q.g.C.C.C.C.C.C.C.C.C.C.C.C.C.C.C.C.C.C.C.C.C.C.C.C.C.C.C.6.' ",
"n.z.C.C.C.C.C.C.C.C.C.C.C.C.C.C.C.C.C.C.C.C.C.C.C.C.C.C.C.y.$.a g q.z.C.C.C.C.C.C.C.C.C.C.C.C.C.C.C.C.C.C.C.C.C.C.C.C.C.C.C.q.' ",
"k.z.C.C.C.C.C.C.C.C.C.C.C.C.C.C.C.C.C.C.C.C.C.C.C.C.C.C.C.y.O.a a q.c.C.C.C.C.C.C.C.C.C.C.C.C.C.C.C.C.C.C.C.C.C.C.C.C.C.M.V.q.' ",
"k.z.C.C.C.C.C.C.C.C.C.C.C.C.C.C.C.C.C.C.C.C.C.C.C.C.C.C.C.y.;.i a q.M.C.C.C.C.C.C.C.C.C.C.C.C.C.C.C.C.C.C.C.C.C.C.C.C.C.V.M.7.' ",
"s.z.C.C.C.C.C.C.C.C.C.C.C.C.C.C.C.C.C.C.C.C.S.N.C.C.C.C.S.t.#.i a q.z.C.C.C.C.C.C.C.C.C.C.C.C.C.C.C.C.C.C.C.C.C.C.C.C.C.S.C.6.' ",
"n.g.C.C.C.C.C.C.C.C.C.C.C.C.C.C.C.C.C.C.C.A.N.S.C.C.C.C.N.t.;.8 8 6.z.C.C.C.C.C.C.C.C.C.C.C.C.C.C.C.C.C.C.S.S.N.C.C.C.C.M.V.q.' ",
"K.^ L L R K K K K U R K I I L L R K K R L L K K U K K K U K =.    -.L K U U L L K U K K K K R K K R L L K K K R K K R K K U B G ",
"  F $ O # # O # # O O O $ # O O O # O O # O # O # $ # O O N         C # # $ O O # # O # # O O # O O O $ # # O O # O # # O O j   "
};
